<svg xmlns="http://www.w3.org/2000/svg" width="59.028" height="59.063" viewBox="0 0 59.028 59.063">
  <g id="Group_15494" data-name="Group 15494" transform="translate(-1038.471 -2038.695)">
    <circle id="Ellipse_808" data-name="Ellipse 808" cx="18" cy="18" r="18" transform="translate(1044 2044)" fill="#ffc093"/>
    <path id="stock-exchange-app" d="M43.733,18.673a2.248,2.248,0,0,1-2.839-1.432A18.516,18.516,0,0,0,23.271,4.5c-19.2.2-25.607,25.575-8.83,34.868A2.248,2.248,0,1,1,12.3,43.319C-8.549,31.764-.572.252,23.271,0A23.129,23.129,0,0,1,45.165,15.834a2.248,2.248,0,0,1-1.432,2.839ZM29.679,26.421a5.459,5.459,0,0,0-1.867-4.067,6.314,6.314,0,0,0-4.2-1.554c-1.089,0-1.911-.483-1.911-1.124a1.126,1.126,0,0,1,1.124-1.124,8.862,8.862,0,0,1,3.457.746,2.248,2.248,0,1,0,1.63-4.191,18.074,18.074,0,0,0-1.939-.639v-.525a2.248,2.248,0,0,0-4.5,0v.276c-6.64,2.01-5.245,11.1,2.136,11.079.853,0,1.574.515,1.574,1.124A1.169,1.169,0,0,1,24,27.545a11.933,11.933,0,0,1-3.835-.853,2.248,2.248,0,0,0-1.661,4.179,17.551,17.551,0,0,0,2.967.879v.292a2.248,2.248,0,0,0,4.5,0v-.348A5.634,5.634,0,0,0,29.679,26.421ZM55.536,42.5a2.248,2.248,0,0,0-2.248,2.248V55.314a2.248,2.248,0,0,0,4.5,0V44.746A2.248,2.248,0,0,0,55.536,42.5Zm-8.994,2.586a2.248,2.248,0,0,0-2.248,2.248v7.982a2.248,2.248,0,0,0,4.5,0V47.332A2.248,2.248,0,0,0,46.542,45.083ZM37.549,50.03A2.248,2.248,0,0,0,35.3,52.278v3.035a2.248,2.248,0,0,0,4.5,0V52.278A2.248,2.248,0,0,0,37.549,50.03Zm-8.994-1.911a2.248,2.248,0,0,0-2.248,2.248v4.947a2.248,2.248,0,0,0,4.5,0V50.367A2.248,2.248,0,0,0,28.555,48.119ZM11.645,57.562a2.254,2.254,0,0,1-1.585-3.844L23.1,40.77c.026-.026.053-.052.081-.077a7.85,7.85,0,0,1,10.109-.349l.189.139.067.051a3.379,3.379,0,0,0,4.6-.389l.032-.035,7.966-8.482a2.249,2.249,0,0,1,3.278,3.079l-7.951,8.466a7.886,7.886,0,0,1-10.678.917L30.6,43.95l-.067-.051A3.364,3.364,0,0,0,26.222,44L13.23,56.909a2.242,2.242,0,0,1-1.584.653Zm46.139-21.81V29.681a6.753,6.753,0,0,0-6.745-6.745H44.968a2.248,2.248,0,0,0,0,4.5h6.071a2.251,2.251,0,0,1,2.248,2.248v6.071a2.248,2.248,0,0,0,4.5,0Z" transform="translate(1038.964 2039.445)" fill="#1e44ad" stroke="#fff" stroke-width="1.5"/>
  </g>
</svg>
