<svg width="50" height="50" viewBox="0 0 50 50" fill="none" xmlns="http://www.w3.org/2000/svg">
<circle cx="25" cy="25" r="25" fill="#F8CA9C"/>
<mask id="mask0_1274_225" style="mask-type:alpha" maskUnits="userSpaceOnUse" x="13" y="13" width="24" height="24">
<rect x="13" y="13" width="24" height="24" fill="#D9D9D9"/>
</mask>
<g mask="url(#mask0_1274_225)">
<path d="M19 35C18.1667 35 17.4583 34.7083 16.875 34.125C16.2917 33.5417 16 32.8333 16 32V31C16 30.45 16.1958 29.9792 16.5875 29.5875C16.9792 29.1958 17.45 29 18 29H19V17C19 16.45 19.1958 15.9792 19.5875 15.5875C19.9792 15.1958 20.45 15 21 15H32C32.55 15 33.0208 15.1958 33.4125 15.5875C33.8042 15.9792 34 16.45 34 17V32C34 32.8333 33.7083 33.5417 33.125 34.125C32.5417 34.7083 31.8333 35 31 35H19ZM31 33C31.2833 33 31.5208 32.9042 31.7125 32.7125C31.9042 32.5208 32 32.2833 32 32V17H21V29H28C28.55 29 29.0208 29.1958 29.4125 29.5875C29.8042 29.9792 30 30.45 30 31V32C30 32.2833 30.0958 32.5208 30.2875 32.7125C30.4792 32.9042 30.7167 33 31 33ZM23 22C22.7167 22 22.4792 21.9042 22.2875 21.7125C22.0958 21.5208 22 21.2833 22 21C22 20.7167 22.0958 20.4792 22.2875 20.2875C22.4792 20.0958 22.7167 20 23 20H30C30.2833 20 30.5208 20.0958 30.7125 20.2875C30.9042 20.4792 31 20.7167 31 21C31 21.2833 30.9042 21.5208 30.7125 21.7125C30.5208 21.9042 30.2833 22 30 22H23ZM23 25C22.7167 25 22.4792 24.9042 22.2875 24.7125C22.0958 24.5208 22 24.2833 22 24C22 23.7167 22.0958 23.4792 22.2875 23.2875C22.4792 23.0958 22.7167 23 23 23H30C30.2833 23 30.5208 23.0958 30.7125 23.2875C30.9042 23.4792 31 23.7167 31 24C31 24.2833 30.9042 24.5208 30.7125 24.7125C30.5208 24.9042 30.2833 25 30 25H23Z" fill="#9B4E00"/>
</g>
</svg>
