<svg width="85" height="64" viewBox="0 0 85 64" fill="none" xmlns="http://www.w3.org/2000/svg">
<path d="M3.63434 56.9006C3.53823 56.9006 3.44606 56.8624 3.37811 56.7945C3.31015 56.7265 3.27197 56.6343 3.27197 56.5382V10.6193C3.27197 10.5232 3.31015 10.431 3.37811 10.3631C3.44606 10.2951 3.53823 10.257 3.63434 10.257C3.73044 10.257 3.82261 10.2951 3.89057 10.3631C3.95853 10.431 3.9967 10.5232 3.9967 10.6193V56.531C3.99767 56.5792 3.98901 56.6271 3.97123 56.6719C3.95345 56.7167 3.92691 56.7575 3.89317 56.7919C3.85942 56.8263 3.81915 56.8537 3.7747 56.8723C3.73026 56.891 3.68254 56.9006 3.63434 56.9006Z" fill="#DFEAEF"/>
<path d="M22.8179 56.9004C22.7218 56.9004 22.6297 56.8622 22.5617 56.7943C22.4937 56.7263 22.4556 56.6342 22.4556 56.5381V10.6191C22.4556 10.523 22.4937 10.4309 22.5617 10.3629C22.6297 10.295 22.7218 10.2568 22.8179 10.2568C22.914 10.2568 23.0062 10.295 23.0742 10.3629C23.1421 10.4309 23.1803 10.523 23.1803 10.6191V56.5308C23.1813 56.579 23.1726 56.6269 23.1548 56.6717C23.137 56.7165 23.1105 56.7573 23.0768 56.7917C23.043 56.8262 23.0027 56.8535 22.9583 56.8722C22.9139 56.8908 22.8661 56.9004 22.8179 56.9004Z" fill="#DFEAEF"/>
<path d="M41.9981 56.9004C41.902 56.9004 41.8098 56.8622 41.7419 56.7943C41.6739 56.7263 41.6357 56.6342 41.6357 56.5381V10.6191C41.6357 10.523 41.6739 10.4309 41.7419 10.3629C41.8098 10.295 41.902 10.2568 41.9981 10.2568C42.0942 10.2568 42.1864 10.295 42.2543 10.3629C42.3223 10.4309 42.3605 10.523 42.3605 10.6191V56.5308C42.3614 56.579 42.3528 56.6269 42.335 56.6717C42.3172 56.7165 42.2907 56.7573 42.2569 56.7917C42.2232 56.8262 42.1829 56.8535 42.1385 56.8722C42.094 56.8908 42.0463 56.9004 41.9981 56.9004Z" fill="#DFEAEF"/>
<path d="M61.1778 56.9004C61.0817 56.9004 60.9895 56.8622 60.9216 56.7943C60.8536 56.7263 60.8154 56.6342 60.8154 56.5381V10.6191C60.8154 10.523 60.8536 10.4309 60.9216 10.3629C60.9895 10.295 61.0817 10.2568 61.1778 10.2568C61.2739 10.2568 61.3661 10.295 61.434 10.3629C61.502 10.4309 61.5402 10.523 61.5402 10.6191V56.5308C61.5411 56.579 61.5325 56.6269 61.5147 56.6717C61.4969 56.7165 61.4704 56.7573 61.4366 56.7917C61.4029 56.8262 61.3626 56.8535 61.3182 56.8722C61.2737 56.8908 61.226 56.9004 61.1778 56.9004Z" fill="#DFEAEF"/>
<path d="M80.3619 56.9004C80.2658 56.9004 80.1736 56.8622 80.1057 56.7943C80.0377 56.7263 79.9995 56.6342 79.9995 56.5381V10.6191C79.9995 10.523 80.0377 10.4309 80.1057 10.3629C80.1736 10.295 80.2658 10.2568 80.3619 10.2568C80.458 10.2568 80.5502 10.295 80.6181 10.3629C80.6861 10.4309 80.7242 10.523 80.7242 10.6191V56.5308C80.7252 56.579 80.7165 56.6269 80.6988 56.6717C80.681 56.7165 80.6544 56.7573 80.6207 56.7917C80.587 56.8262 80.5467 56.8535 80.5022 56.8722C80.4578 56.8908 80.4101 56.9004 80.3619 56.9004Z" fill="#DFEAEF"/>
<path d="M84.6376 56.9006H0.362365C0.26626 56.9006 0.174091 56.8625 0.106134 56.7945C0.0381774 56.7265 0 56.6344 0 56.5383C0 56.4422 0.0381774 56.35 0.106134 56.282C0.174091 56.2141 0.26626 56.1759 0.362365 56.1759H84.6376C84.7337 56.1759 84.8259 56.2141 84.8939 56.282C84.9618 56.35 85 56.4422 85 56.5383C85 56.6344 84.9618 56.7265 84.8939 56.7945C84.8259 56.8625 84.7337 56.9006 84.6376 56.9006Z" fill="#093F68"/>
<path d="M80.3615 42.7177H3.63434C3.53823 42.7177 3.44606 42.6795 3.37811 42.6115C3.31015 42.5436 3.27197 42.4514 3.27197 42.3553C3.27197 42.2592 3.31015 42.167 3.37811 42.0991C3.44606 42.0311 3.53823 41.9929 3.63434 41.9929H80.3615C80.4576 41.9929 80.5498 42.0311 80.6178 42.0991C80.6857 42.167 80.7239 42.2592 80.7239 42.3553C80.7239 42.4514 80.6857 42.5436 80.6178 42.6115C80.5498 42.6795 80.4576 42.7177 80.3615 42.7177Z" fill="#DFEAEF"/>
<path d="M80.3615 25.1682H3.63434C3.53823 25.1682 3.44606 25.13 3.37811 25.0621C3.31015 24.9941 3.27197 24.902 3.27197 24.8058C3.27197 24.7097 3.31015 24.6176 3.37811 24.5496C3.44606 24.4817 3.53823 24.4435 3.63434 24.4435H80.3615C80.4576 24.4435 80.5498 24.4817 80.6178 24.5496C80.6857 24.6176 80.7239 24.7097 80.7239 24.8058C80.7239 24.902 80.6857 24.9941 80.6178 25.0621C80.5498 25.13 80.4576 25.1682 80.3615 25.1682Z" fill="#DFEAEF"/>
<path d="M80.3615 10.9816H3.63434C3.53823 10.9816 3.44606 10.9434 3.37811 10.8755C3.31015 10.8075 3.27197 10.7154 3.27197 10.6193C3.27197 10.5232 3.31015 10.431 3.37811 10.363C3.44606 10.2951 3.53823 10.2569 3.63434 10.2569H80.3615C80.4576 10.2569 80.5498 10.2951 80.6178 10.363C80.6857 10.431 80.7239 10.5232 80.7239 10.6193C80.7239 10.7154 80.6857 10.8075 80.6178 10.8755C80.5498 10.9434 80.4576 10.9816 80.3615 10.9816Z" fill="#DFEAEF"/>
<path d="M53.5938 54.661V59.6073C53.5938 61.8069 57.2718 63.5933 61.8086 63.5933C66.3454 63.5933 70.0234 61.8105 70.0234 59.6073V54.661H53.5938Z" fill="#FFBC0E"/>
<path d="M61.8081 63.9522C56.9996 63.9522 53.231 62.0426 53.231 59.6039V54.6612C53.231 54.5651 53.2691 54.4729 53.3371 54.405C53.405 54.337 53.4972 54.2988 53.5933 54.2988H70.023C70.1191 54.2988 70.2112 54.337 70.2792 54.405C70.3472 54.4729 70.3853 54.5651 70.3853 54.6612V59.6075C70.3853 62.0426 66.6167 63.9522 61.8081 63.9522ZM53.9557 55.0236V59.6075C53.9557 61.5679 57.554 63.2311 61.8081 63.2311C66.0623 63.2311 69.6606 61.5715 69.6606 59.6075V55.0236H53.9557Z" fill="#093F68"/>
<path d="M61.8086 58.6399C66.3455 58.6399 70.0234 56.8586 70.0234 54.6611C70.0234 52.4637 66.3455 50.6824 61.8086 50.6824C57.2716 50.6824 53.5938 52.4637 53.5938 54.6611C53.5938 56.8586 57.2716 58.6399 61.8086 58.6399Z" fill="#FFBC0E"/>
<path d="M61.8081 59.0022C56.9996 59.0022 53.231 57.0962 53.231 54.6539C53.231 52.2115 56.9996 50.3055 61.8081 50.3055C66.6167 50.3055 70.3853 52.2115 70.3853 54.6539C70.3853 57.0962 66.6167 59.0022 61.8081 59.0022ZM61.8081 51.0302C57.554 51.0302 53.9557 52.6862 53.9557 54.6539C53.9557 56.6215 57.554 58.2775 61.8081 58.2775C66.0623 58.2775 69.6606 56.6215 69.6606 54.6539C69.6606 52.6862 66.0623 51.0447 61.8081 51.0447V51.0302Z" fill="#093F68"/>
<path d="M53.5938 49.7546V54.7045C53.5938 56.9005 57.2718 58.6906 61.8086 58.6906C66.3454 58.6906 70.0234 56.9077 70.0234 54.7045V49.7546H53.5938Z" fill="#FFBC0E"/>
<path d="M61.8081 59.0529C56.9996 59.0529 53.231 57.1469 53.231 54.7045V49.7546C53.231 49.6585 53.2691 49.5664 53.3371 49.4984C53.405 49.4305 53.4972 49.3923 53.5933 49.3923H70.023C70.1191 49.3923 70.2112 49.4305 70.2792 49.4984C70.3472 49.5664 70.3853 49.6585 70.3853 49.7546V54.7045C70.3853 57.1469 66.6167 59.0529 61.8081 59.0529ZM53.9557 50.117V54.7045C53.9557 56.6649 57.554 58.3282 61.8081 58.3282C66.0623 58.3282 69.6606 56.6722 69.6606 54.7045V50.117H53.9557Z" fill="#093F68"/>
<path d="M61.8086 53.7407C66.3455 53.7407 70.0234 51.9594 70.0234 49.762C70.0234 47.5646 66.3455 45.7832 61.8086 45.7832C57.2716 45.7832 53.5938 47.5646 53.5938 49.762C53.5938 51.9594 57.2716 53.7407 61.8086 53.7407Z" fill="#FFBC0E"/>
<path d="M61.8081 54.1031C56.9996 54.1031 53.231 52.197 53.231 49.7547C53.231 47.3124 56.9996 45.4063 61.8081 45.4063C66.6167 45.4063 70.3853 47.316 70.3853 49.7547C70.3853 52.1934 66.6167 54.1031 61.8081 54.1031ZM61.8081 46.131C57.554 46.131 53.9557 47.7871 53.9557 49.7547C53.9557 51.7223 57.554 53.3783 61.8081 53.3783C66.0623 53.3783 69.6606 51.7223 69.6606 49.7547C69.6606 47.7871 66.0623 46.131 61.8081 46.131Z" fill="#093F68"/>
<path d="M53.5938 44.8663V49.8162C53.5938 52.0121 57.2718 53.8022 61.8086 53.8022C66.3454 53.8022 70.0234 52.0194 70.0234 49.8162V44.8663H53.5938Z" fill="#FFBC0E"/>
<path d="M61.8081 54.1573C56.9996 54.1573 53.231 52.2476 53.231 49.8089V44.8663C53.231 44.7702 53.2691 44.678 53.3371 44.61C53.405 44.5421 53.4972 44.5039 53.5933 44.5039H70.023C70.1191 44.5039 70.2112 44.5421 70.2792 44.61C70.3472 44.678 70.3853 44.7702 70.3853 44.8663V49.8162C70.3853 52.2477 66.6167 54.1573 61.8081 54.1573ZM53.9557 45.2286V49.8162C53.9557 51.7766 57.554 53.4398 61.8081 53.4398C66.0623 53.4398 69.6606 51.7838 69.6606 49.8162V45.2286H53.9557Z" fill="#093F68"/>
<path d="M61.8086 48.8452C66.3455 48.8452 70.0234 47.0638 70.0234 44.8664C70.0234 42.669 66.3455 40.8876 61.8086 40.8876C57.2716 40.8876 53.5938 42.669 53.5938 44.8664C53.5938 47.0638 57.2716 48.8452 61.8086 48.8452Z" fill="#FFBC0E"/>
<path d="M61.8081 49.2075C56.9996 49.2075 53.231 47.3015 53.231 44.8591C53.231 42.4168 56.9996 40.5107 61.8081 40.5107C66.6167 40.5107 70.3853 42.4168 70.3853 44.8591C70.3853 47.3015 66.6167 49.2075 61.8081 49.2075ZM61.8081 41.2355C57.554 41.2355 53.9557 42.8915 53.9557 44.8591C53.9557 46.8268 57.554 48.4828 61.8081 48.4828C66.0623 48.4828 69.6606 46.8268 69.6606 44.8591C69.6606 42.8915 66.0623 41.25 61.8081 41.25V41.2355Z" fill="#093F68"/>
<path d="M53.5938 39.9707V44.9206C53.5938 47.1165 57.2718 48.9066 61.8086 48.9066C66.3454 48.9066 70.0234 47.1238 70.0234 44.9206V39.9707H53.5938Z" fill="#FFBC0E"/>
<path d="M61.8081 49.2583C56.9996 49.2583 53.231 47.3523 53.231 44.9099V39.9709C53.231 39.8748 53.2691 39.7826 53.3371 39.7147C53.405 39.6467 53.4972 39.6085 53.5933 39.6085H70.023C70.1191 39.6085 70.2112 39.6467 70.2792 39.7147C70.3472 39.7826 70.3853 39.8748 70.3853 39.9709V44.9208C70.3853 47.3523 66.6167 49.2583 61.8081 49.2583ZM53.9557 40.3333V44.9208C53.9557 46.8812 57.554 48.5444 61.8081 48.5444C66.0623 48.5444 69.6606 46.8884 69.6606 44.9208V40.3333H53.9557Z" fill="#093F68"/>
<path d="M61.8086 43.9459C66.3455 43.9459 70.0234 42.1646 70.0234 39.9672C70.0234 37.7698 66.3455 35.9884 61.8086 35.9884C57.2716 35.9884 53.5938 37.7698 53.5938 39.9672C53.5938 42.1646 57.2716 43.9459 61.8086 43.9459Z" fill="#FFBC0E"/>
<path d="M61.8081 44.3191C56.9996 44.3191 53.231 42.4022 53.231 39.9708C53.231 37.5393 56.9996 35.6224 61.8081 35.6224C66.6167 35.6224 70.3853 37.532 70.3853 39.9708C70.3853 42.4095 66.6167 44.3191 61.8081 44.3191ZM61.8081 36.3471C57.554 36.3471 53.9557 38.0031 53.9557 39.9708C53.9557 41.9384 57.554 43.5944 61.8081 43.5944C66.0623 43.5944 69.6606 41.9348 69.6606 39.9708C69.6606 38.0067 66.0623 36.3471 61.8081 36.3471Z" fill="#093F68"/>
<path d="M53.5938 35.0717V40.0216C53.5938 42.2175 57.2718 44.0076 61.8086 44.0076C66.3454 44.0076 70.0234 42.2247 70.0234 40.0216V35.0717H53.5938Z" fill="#FFBC0E"/>
<path d="M61.8081 44.3627C56.9996 44.3627 53.231 42.453 53.231 40.0143V35.0717C53.231 34.9755 53.2691 34.8834 53.3371 34.8154C53.405 34.7475 53.4972 34.7093 53.5933 34.7093H70.023C70.1191 34.7093 70.2112 34.7475 70.2792 34.8154C70.3472 34.8834 70.3853 34.9755 70.3853 35.0717V40.0216C70.3853 42.453 66.6167 44.3627 61.8081 44.3627ZM53.9557 35.434V40.0216C53.9557 41.982 57.554 43.6452 61.8081 43.6452C66.0623 43.6452 69.6606 41.9892 69.6606 40.0216V35.434H53.9557Z" fill="#093F68"/>
<path d="M61.8086 39.0504C66.3455 39.0504 70.0234 37.2691 70.0234 35.0717C70.0234 32.8743 66.3455 31.0929 61.8086 31.0929C57.2716 31.0929 53.5938 32.8743 53.5938 35.0717C53.5938 37.2691 57.2716 39.0504 61.8086 39.0504Z" fill="#FFBC0E"/>
<path d="M61.8081 39.4128C56.9996 39.4128 53.231 37.5068 53.231 35.0644C53.231 32.6221 56.9996 30.7161 61.8081 30.7161C66.6167 30.7161 70.3853 32.6221 70.3853 35.0644C70.3853 37.5068 66.6167 39.4128 61.8081 39.4128ZM61.8081 31.4408C57.554 31.4408 53.9557 33.0968 53.9557 35.0644C53.9557 37.0321 57.554 38.6881 61.8081 38.6881C66.0623 38.6881 69.6606 37.0321 69.6606 35.0644C69.6606 33.0968 66.0623 31.4553 61.8081 31.4553V31.4408Z" fill="#093F68"/>
<path d="M33.5122 54.661V59.6073C33.5122 61.8069 37.1866 63.5933 41.7234 63.5933C46.2602 63.5933 49.9382 61.8105 49.9382 59.6073V54.661H33.5122Z" fill="#FFBC0E"/>
<path d="M41.723 63.9522C36.9144 63.9522 33.1494 62.0426 33.1494 59.6039V54.6612C33.1494 54.5651 33.1876 54.4729 33.2555 54.405C33.3235 54.337 33.4157 54.2988 33.5118 54.2988H49.9378C50.0339 54.2988 50.1261 54.337 50.194 54.405C50.262 54.4729 50.3002 54.5651 50.3002 54.6612V59.6075C50.3002 62.0426 46.5316 63.9522 41.723 63.9522ZM33.8741 55.0236V59.6075C33.8741 61.5679 37.4688 63.2311 41.723 63.2311C45.9771 63.2311 49.5754 61.5715 49.5754 59.6075V55.0236H33.8741Z" fill="#093F68"/>
<path d="M41.7231 58.6399C46.26 58.6399 49.9379 56.8586 49.9379 54.6611C49.9379 52.4637 46.26 50.6824 41.7231 50.6824C37.1862 50.6824 33.5083 52.4637 33.5083 54.6611C33.5083 56.8586 37.1862 58.6399 41.7231 58.6399Z" fill="#FFBC0E"/>
<path d="M41.723 59.0022C36.9144 59.0022 33.1494 57.0962 33.1494 54.6539C33.1494 52.2115 36.9144 50.3055 41.723 50.3055C46.5316 50.3055 50.3002 52.2115 50.3002 54.6539C50.3002 57.0962 46.5316 59.0022 41.723 59.0022ZM41.723 51.0302C37.4688 51.0302 33.8741 52.6862 33.8741 54.6539C33.8741 56.6215 37.4688 58.2775 41.723 58.2775C45.9771 58.2775 49.5754 56.6215 49.5754 54.6539C49.5754 52.6862 45.9844 51.0447 41.723 51.0447V51.0302Z" fill="#093F68"/>
<path d="M33.5122 49.7546V54.7045C33.5122 56.9005 37.1866 58.6906 41.7234 58.6906C46.2602 58.6906 49.9382 56.9077 49.9382 54.7045V49.7546H33.5122Z" fill="#FFBC0E"/>
<path d="M41.723 59.0529C36.9144 59.0529 33.1494 57.1469 33.1494 54.7045V49.7546C33.1494 49.6585 33.1876 49.5664 33.2555 49.4984C33.3235 49.4305 33.4157 49.3923 33.5118 49.3923H49.9378C50.0339 49.3923 50.1261 49.4305 50.194 49.4984C50.262 49.5664 50.3002 49.6585 50.3002 49.7546V54.7045C50.3002 57.1469 46.5316 59.0529 41.723 59.0529ZM33.8741 50.117V54.7045C33.8741 56.6649 37.4688 58.3282 41.723 58.3282C45.9771 58.3282 49.5754 56.6722 49.5754 54.7045V50.117H33.8741Z" fill="#093F68"/>
<path d="M41.7231 53.7407C46.26 53.7407 49.9379 51.9594 49.9379 49.762C49.9379 47.5646 46.26 45.7832 41.7231 45.7832C37.1862 45.7832 33.5083 47.5646 33.5083 49.762C33.5083 51.9594 37.1862 53.7407 41.7231 53.7407Z" fill="#FFBC0E"/>
<path d="M41.723 54.1031C36.9144 54.1031 33.1494 52.197 33.1494 49.7547C33.1494 47.3124 36.9144 45.4063 41.723 45.4063C46.5316 45.4063 50.3002 47.316 50.3002 49.7547C50.3002 52.1934 46.5316 54.1031 41.723 54.1031ZM41.723 46.131C37.4688 46.131 33.8741 47.7871 33.8741 49.7547C33.8741 51.7223 37.4688 53.3783 41.723 53.3783C45.9771 53.3783 49.5754 51.7223 49.5754 49.7547C49.5754 47.7871 45.9844 46.131 41.723 46.131Z" fill="#093F68"/>
<path d="M33.5122 44.8663V49.8162C33.5122 52.0121 37.1866 53.8022 41.7234 53.8022C46.2602 53.8022 49.9382 52.0194 49.9382 49.8162V44.8663H33.5122Z" fill="#FFBC0E"/>
<path d="M41.723 54.1573C36.9144 54.1573 33.1494 52.2476 33.1494 49.8089V44.8663C33.1494 44.7702 33.1876 44.678 33.2555 44.61C33.3235 44.5421 33.4157 44.5039 33.5118 44.5039H49.9378C50.0339 44.5039 50.1261 44.5421 50.194 44.61C50.262 44.678 50.3002 44.7702 50.3002 44.8663V49.8162C50.3002 52.2477 46.5316 54.1573 41.723 54.1573ZM33.8741 45.2286V49.8162C33.8741 51.7766 37.4688 53.4398 41.723 53.4398C45.9771 53.4398 49.5754 51.7838 49.5754 49.8162V45.2286H33.8741Z" fill="#093F68"/>
<path d="M41.7231 48.8452C46.26 48.8452 49.9379 47.0638 49.9379 44.8664C49.9379 42.669 46.26 40.8876 41.7231 40.8876C37.1862 40.8876 33.5083 42.669 33.5083 44.8664C33.5083 47.0638 37.1862 48.8452 41.7231 48.8452Z" fill="#FFBC0E"/>
<path d="M41.723 49.2075C36.9144 49.2075 33.1494 47.3015 33.1494 44.8591C33.1494 42.4168 36.9144 40.5107 41.723 40.5107C46.5316 40.5107 50.3002 42.4168 50.3002 44.8591C50.3002 47.3015 46.5316 49.2075 41.723 49.2075ZM41.723 41.2355C37.4688 41.2355 33.8741 42.8915 33.8741 44.8591C33.8741 46.8268 37.4688 48.4828 41.723 48.4828C45.9771 48.4828 49.5754 46.8268 49.5754 44.8591C49.5754 42.8915 45.9844 41.25 41.723 41.25V41.2355Z" fill="#093F68"/>
<path d="M13.4258 54.661V59.6073C13.4258 61.8069 17.1038 63.5933 21.637 63.5933C26.1702 63.5933 29.8518 61.8105 29.8518 59.6073V54.661H13.4258Z" fill="#FFBC0E"/>
<path d="M21.6365 63.9522C16.828 63.9522 13.063 62.0426 13.063 59.6039V54.6612C13.063 54.5651 13.1012 54.4729 13.1691 54.405C13.2371 54.337 13.3292 54.2988 13.4254 54.2988H29.8514C29.9475 54.2988 30.0396 54.337 30.1076 54.405C30.1756 54.4729 30.2137 54.5651 30.2137 54.6612V59.6075C30.2137 62.0426 26.4451 63.9522 21.6365 63.9522ZM13.7877 55.0236V59.6075C13.7877 61.5679 17.3824 63.2311 21.6365 63.2311C25.8907 63.2311 29.489 61.5715 29.489 59.6075V55.0236H13.7877Z" fill="#093F68"/>
<path d="M21.6367 58.6399C26.1736 58.6399 29.8515 56.8586 29.8515 54.6611C29.8515 52.4637 26.1736 50.6824 21.6367 50.6824C17.0998 50.6824 13.4219 52.4637 13.4219 54.6611C13.4219 56.8586 17.0998 58.6399 21.6367 58.6399Z" fill="#FFBC0E"/>
<path d="M21.6365 59.0022C16.828 59.0022 13.063 57.0962 13.063 54.6539C13.063 52.2115 16.828 50.3055 21.6365 50.3055C26.4451 50.3055 30.2137 52.2115 30.2137 54.6539C30.2137 57.0962 26.4451 59.0022 21.6365 59.0022ZM21.6365 51.0302C17.3824 51.0302 13.7877 52.6862 13.7877 54.6539C13.7877 56.6215 17.3824 58.2775 21.6365 58.2775C25.8907 58.2775 29.489 56.6215 29.489 54.6539C29.489 52.6862 25.8943 51.0447 21.6365 51.0447V51.0302Z" fill="#093F68"/>
<path d="M73.7736 2.87915C73.7701 2.78183 73.7592 2.68492 73.7409 2.58926V2.5349C73.7179 2.43973 73.6876 2.34645 73.6504 2.25588C73.6422 2.23349 73.6325 2.2117 73.6214 2.19065C73.5806 2.10153 73.5334 2.01554 73.48 1.93338L73.4474 1.89352C73.3891 1.80962 73.3223 1.73192 73.2481 1.6616C73.1727 1.59203 73.0915 1.52899 73.0053 1.47317L72.9546 1.44056C72.8698 1.39059 72.7814 1.34699 72.6901 1.31011L72.6249 1.28474C72.532 1.25053 72.4362 1.22505 72.3386 1.20865H72.3024C72.209 1.19339 72.1143 1.18733 72.0197 1.19053H71.9726C71.8965 1.19053 71.8168 1.19053 71.7407 1.21227L59.9819 3.1473C59.7426 3.17615 59.5115 3.25316 59.3027 3.37367C59.0939 3.49419 58.9117 3.65573 58.7669 3.84855C58.6222 4.04138 58.518 4.2615 58.4606 4.49567C58.4032 4.72983 58.3938 4.97319 58.433 5.21108C58.4721 5.44898 58.5591 5.67648 58.6885 5.87989C58.8179 6.08331 58.9871 6.25842 59.186 6.39469C59.3849 6.53095 59.6094 6.62554 59.8458 6.67277C60.0822 6.72 60.3257 6.71888 60.5617 6.66949L67.0009 5.54616L41.4107 32.3249L29.4164 24.6319C29.0899 24.4231 28.7042 24.3265 28.3177 24.3565C27.9313 24.3866 27.5652 24.5418 27.2749 24.7986L10.8343 39.3367C10.4797 39.65 10.2641 40.0914 10.2349 40.5637C10.2056 41.036 10.3652 41.5005 10.6785 41.8552C10.9918 42.2098 11.4332 42.4254 11.9055 42.4546C12.3778 42.4839 12.8423 42.3243 13.197 42.011L28.6374 28.3752L40.7331 36.1334C41.0814 36.3575 41.4969 36.4533 41.9082 36.4044C42.3195 36.3554 42.701 36.1648 42.987 35.8653L69.6969 7.9124L69.0809 14.0472C69.0334 14.5177 69.1746 14.9877 69.4736 15.354C69.7726 15.7203 70.2049 15.9528 70.6753 16.0004H70.8565C71.2988 15.9998 71.7251 15.8348 72.0526 15.5375C72.3801 15.2401 72.5853 14.8317 72.6285 14.3915L73.7627 3.09657C73.7701 3.02434 73.7738 2.95176 73.7736 2.87915Z" fill="#68E1FD"/>
<path d="M12.0093 42.819C11.5731 42.8201 11.147 42.6882 10.7877 42.4408C10.4284 42.1935 10.1531 41.8425 9.99835 41.4347C9.84365 41.0269 9.81694 40.5816 9.92178 40.1582C10.0266 39.7348 10.258 39.3534 10.5852 39.0649L27.0438 24.5232C27.3941 24.2147 27.8352 24.0285 28.3005 23.9926C28.7659 23.9566 29.2303 24.0729 29.6238 24.3239L41.3681 31.8575L66.0089 6.0752L60.5734 6.97024C60.2946 7.01466 60.0097 7.00368 59.735 6.93792C59.4604 6.87216 59.2015 6.75291 58.9729 6.587C58.7444 6.42108 58.5509 6.21176 58.4033 5.97098C58.2557 5.73021 58.1571 5.46271 58.113 5.18378C58.0219 4.62269 58.1568 4.04835 58.4882 3.58652C58.8197 3.12469 59.3206 2.813 59.8813 2.7197L71.6401 0.799166C71.7333 0.781734 71.8279 0.77324 71.9227 0.773801H71.9735C72.0948 0.769769 72.2162 0.778269 72.3358 0.799166H72.3757C72.4987 0.821039 72.6199 0.85254 72.738 0.89338L72.8141 0.92237C72.9242 0.966241 73.0308 1.01833 73.133 1.07819L73.1801 1.1108C73.2889 1.18094 73.3919 1.2597 73.4881 1.34634C73.5032 1.35774 73.5166 1.37115 73.528 1.3862C73.6095 1.46852 73.6846 1.55696 73.7527 1.65072L73.7889 1.70145C73.857 1.79936 73.9153 1.90374 73.9628 2.01309L73.9991 2.08919C74.0417 2.19776 74.0768 2.30915 74.1042 2.42256V2.48054C74.1287 2.59992 74.1432 2.72112 74.1477 2.84291V2.86827V3.12555L73.0134 14.4205C72.9567 14.987 72.6773 15.5078 72.2366 15.8683C71.7959 16.2288 71.2301 16.3995 70.6635 16.3428C70.097 16.2861 69.5762 16.0067 69.2156 15.566C68.8551 15.1253 68.6845 14.5594 68.7412 13.9929L69.2521 8.91977L43.2705 36.0972C42.9261 36.4565 42.4678 36.6855 41.9736 36.7449C41.4794 36.8044 40.9798 36.6907 40.56 36.4233L28.6926 28.8136L13.4515 42.2827C13.0536 42.6337 12.5398 42.8248 12.0093 42.819ZM28.4679 24.7008C28.1199 24.7015 27.7845 24.8305 27.5257 25.0631L11.0671 39.6085C10.8506 39.7995 10.6973 40.0519 10.6279 40.3322C10.5585 40.6125 10.5761 40.9072 10.6784 41.1773C10.7807 41.4473 10.9629 41.6797 11.2007 41.8435C11.4385 42.0073 11.7205 42.0948 12.0093 42.0943C12.3562 42.0938 12.6905 41.9646 12.9478 41.7319L28.399 28.0816C28.4582 28.0297 28.5326 27.9985 28.611 27.9926C28.6895 27.9867 28.7677 28.0065 28.8339 28.049L40.9296 35.8073C41.2104 35.9846 41.5436 36.0601 41.8734 36.0212C42.2032 35.9823 42.5097 35.8313 42.7415 35.5935L69.4478 7.64062C69.4998 7.586 69.5675 7.54896 69.6416 7.53467C69.7156 7.52038 69.7923 7.52955 69.8609 7.5609C69.9291 7.59211 69.986 7.64373 70.0236 7.70864C70.0613 7.77354 70.0778 7.84854 70.071 7.92326L69.455 14.0581C69.4203 14.4337 69.5334 14.8081 69.7703 15.1017C69.9482 15.3199 70.1869 15.4804 70.4562 15.5626C70.7255 15.6449 71.0131 15.6453 71.2826 15.5637C71.5521 15.4822 71.7913 15.3224 71.9698 15.1046C72.1483 14.8869 72.258 14.621 72.2851 14.3408L73.4193 3.04583C73.4193 2.9951 73.4193 2.94075 73.4193 2.88639C73.4177 2.87679 73.4177 2.867 73.4193 2.8574C73.4182 2.78186 73.4097 2.70661 73.3939 2.63273L73.7382 2.50953L73.3758 2.58563C73.36 2.5099 73.337 2.43587 73.307 2.36458L73.2852 2.31385C73.2505 2.24288 73.2118 2.17392 73.1693 2.1073L73.1439 2.07469C73.0976 2.00748 73.0442 1.94551 72.9845 1.88989H72.9663C72.907 1.83455 72.8427 1.78481 72.7743 1.74132L72.9229 1.40432L72.7344 1.71233C72.6666 1.67298 72.5964 1.63789 72.5243 1.60724H72.4808C72.4039 1.57987 72.3252 1.55807 72.2452 1.54201C72.1609 1.534 72.0759 1.534 71.9916 1.54201H71.9517C71.8898 1.54446 71.8281 1.55051 71.7669 1.56013L60.0082 3.49516C59.8057 3.50203 59.607 3.55214 59.4255 3.64211C59.244 3.73208 59.0838 3.85984 58.9557 4.01681C58.8277 4.17378 58.7347 4.35633 58.6829 4.55221C58.6312 4.74808 58.622 4.95275 58.6559 5.15249C58.6898 5.35222 58.766 5.5424 58.8795 5.71024C58.9929 5.87809 59.141 6.01973 59.3136 6.12566C59.4863 6.23158 59.6797 6.29934 59.8807 6.32439C60.0818 6.34944 60.2858 6.33119 60.4792 6.27088L66.9728 5.18378C67.0478 5.17172 67.1247 5.18354 67.1927 5.21757C67.2606 5.2516 67.3161 5.30611 67.3513 5.37341C67.3866 5.44071 67.3998 5.51739 67.3891 5.5926C67.3784 5.66781 67.3443 5.73776 67.2917 5.79256L41.7051 32.575C41.6468 32.6364 41.5689 32.6754 41.4848 32.6853C41.4008 32.6953 41.3159 32.6754 41.2449 32.6293L29.2506 24.9327C29.0168 24.7843 28.7448 24.7075 28.4679 24.7116V24.7008Z" fill="#093F68"/>
</svg>
