<svg width="66" height="64" viewBox="0 0 66 64" fill="none" xmlns="http://www.w3.org/2000/svg">
<path d="M39.1641 37.4056H58.2157C58.8343 37.4056 59.3364 37.9077 59.3364 38.5263V41.8884C59.3364 42.507 58.8343 43.009 58.2157 43.009H39.1641C38.5455 43.009 38.0435 42.507 38.0435 41.8884V38.5263C38.0435 37.9077 38.5455 37.4056 39.1641 37.4056Z" fill="#40C4FF"/>
<path d="M58.215 43.5694H39.1634C38.2366 43.5694 37.4824 42.8151 37.4824 41.8883V38.5263C37.4824 37.5995 38.2366 36.8453 39.1634 36.8453H58.215C59.1418 36.8453 59.8961 37.5995 59.8961 38.5263V41.8883C59.8961 42.8151 59.1418 43.5694 58.215 43.5694ZM39.1634 37.966C38.8553 37.966 38.6031 38.217 38.6031 38.5263V41.8883C38.6031 42.1977 38.8553 42.4487 39.1634 42.4487H58.215C58.5232 42.4487 58.7754 42.1977 58.7754 41.8883V38.5263C58.7754 38.217 58.5232 37.966 58.215 37.966H39.1634Z" fill="#263238"/>
<path d="M42.5255 51.414H38.0428C37.7335 51.414 37.4824 51.163 37.4824 50.8537V46.3709C37.4824 46.0616 37.7335 45.8106 38.0428 45.8106H42.5255C42.8348 45.8106 43.0858 46.0616 43.0858 46.3709V50.8537C43.0858 51.163 42.8348 51.414 42.5255 51.414ZM38.6031 50.2933H41.9651V46.9313H38.6031V50.2933Z" fill="#263238"/>
<path d="M47.0079 51.414H42.5252C42.2159 51.414 41.9648 51.163 41.9648 50.8537V46.3709C41.9648 46.0616 42.2159 45.8106 42.5252 45.8106H47.0079C47.3172 45.8106 47.5683 46.0616 47.5683 46.3709V50.8537C47.5683 51.163 47.3172 51.414 47.0079 51.414ZM43.0855 50.2933H46.4476V46.9313H43.0855V50.2933Z" fill="#263238"/>
<path d="M51.4908 51.414H47.0081C46.6988 51.414 46.4478 51.163 46.4478 50.8537V46.3709C46.4478 46.0616 46.6988 45.8106 47.0081 45.8106H51.4908C51.8001 45.8106 52.0512 46.0616 52.0512 46.3709V50.8537C52.0512 51.163 51.8001 51.414 51.4908 51.414ZM47.5684 50.2933H50.9305V46.9313H47.5684V50.2933Z" fill="#263238"/>
<path d="M59.336 51.414H54.8533C54.544 51.414 54.293 51.163 54.293 50.8537V46.3709C54.293 46.0616 54.544 45.8106 54.8533 45.8106H59.336C59.6453 45.8106 59.8964 46.0616 59.8964 46.3709V50.8537C59.8964 51.163 59.6453 51.414 59.336 51.414ZM55.4137 50.2933H58.7757V46.9313H55.4137V50.2933Z" fill="#263238"/>
<path d="M42.5255 55.8967H38.0428C37.7335 55.8967 37.4824 55.6457 37.4824 55.3364V50.8537C37.4824 50.5444 37.7335 50.2933 38.0428 50.2933H42.5255C42.8348 50.2933 43.0858 50.5444 43.0858 50.8537V55.3364C43.0858 55.6457 42.8348 55.8967 42.5255 55.8967ZM38.6031 54.7761H41.9651V51.414H38.6031V54.7761Z" fill="#263238"/>
<path d="M47.0079 55.8967H42.5252C42.2159 55.8967 41.9648 55.6457 41.9648 55.3364V50.8537C41.9648 50.5444 42.2159 50.2933 42.5252 50.2933H47.0079C47.3172 50.2933 47.5683 50.5444 47.5683 50.8537V55.3364C47.5683 55.6457 47.3172 55.8967 47.0079 55.8967ZM43.0855 54.7761H46.4476V51.414H43.0855V54.7761Z" fill="#263238"/>
<path d="M51.4908 55.8967H47.0081C46.6988 55.8967 46.4478 55.6457 46.4478 55.3364V50.8537C46.4478 50.5444 46.6988 50.2933 47.0081 50.2933H51.4908C51.8001 50.2933 52.0512 50.5444 52.0512 50.8537V55.3364C52.0512 55.6457 51.8001 55.8967 51.4908 55.8967ZM47.5684 54.7761H50.9305V51.414H47.5684V54.7761Z" fill="#263238"/>
<path d="M59.336 55.8967H54.8533C54.544 55.8967 54.293 55.6457 54.293 55.3364V50.8537C54.293 50.5444 54.544 50.2933 54.8533 50.2933H59.336C59.6453 50.2933 59.8964 50.5444 59.8964 50.8537V55.3364C59.8964 55.6457 59.6453 55.8967 59.336 55.8967ZM55.4137 54.7761H58.7757V51.414H55.4137V54.7761Z" fill="#263238"/>
<path d="M42.5255 60.3794H38.0428C37.7335 60.3794 37.4824 60.1284 37.4824 59.8191V55.3363C37.4824 55.027 37.7335 54.776 38.0428 54.776H42.5255C42.8348 54.776 43.0858 55.027 43.0858 55.3363V59.8191C43.0858 60.1284 42.8348 60.3794 42.5255 60.3794ZM38.6031 59.2587H41.9651V55.8967H38.6031V59.2587Z" fill="#263238"/>
<path d="M47.0079 60.3794H42.5252C42.2159 60.3794 41.9648 60.1284 41.9648 59.8191V55.3363C41.9648 55.027 42.2159 54.776 42.5252 54.776H47.0079C47.3172 54.776 47.5683 55.027 47.5683 55.3363V59.8191C47.5683 60.1284 47.3172 60.3794 47.0079 60.3794ZM43.0855 59.2587H46.4476V55.8967H43.0855V59.2587Z" fill="#263238"/>
<path d="M51.4908 60.3794H47.0081C46.6988 60.3794 46.4478 60.1284 46.4478 59.8191V55.3363C46.4478 55.027 46.6988 54.776 47.0081 54.776H51.4908C51.8001 54.776 52.0512 55.027 52.0512 55.3363V59.8191C52.0512 60.1284 51.8001 60.3794 51.4908 60.3794ZM47.5684 59.2587H50.9305V55.8967H47.5684V59.2587Z" fill="#263238"/>
<path d="M59.336 60.3794H54.8533C54.544 60.3794 54.293 60.1284 54.293 59.8191V55.3363C54.293 55.027 54.544 54.776 54.8533 54.776H59.336C59.6453 54.776 59.8964 55.027 59.8964 55.3363V59.8191C59.8964 60.1284 59.6453 60.3794 59.336 60.3794ZM55.4137 59.2587H58.7757V55.8967H55.4137V59.2587Z" fill="#263238"/>
<path d="M59.8963 63.7416H37.4827C35.629 63.7416 34.1206 62.2332 34.1206 60.3796V36.8453C34.1206 34.9917 35.629 33.4832 37.4827 33.4832H59.8963C61.7499 33.4832 63.2583 34.9917 63.2583 36.8453V60.3796C63.2583 62.2332 61.7499 63.7416 59.8963 63.7416ZM37.4827 34.6039C36.2465 34.6039 35.2413 35.6091 35.2413 36.8453V60.3796C35.2413 61.6157 36.2465 62.6209 37.4827 62.6209H59.8963C61.1324 62.6209 62.1377 61.6157 62.1377 60.3796V36.8453C62.1377 35.6091 61.1324 34.6039 59.8963 34.6039H37.4827Z" fill="#263238"/>
<path d="M52.6126 32.3625C50.4496 32.3625 48.6902 30.603 48.6902 28.4401V4.90579C48.6902 3.36149 47.4339 2.10408 45.8885 2.10408C45.5792 2.10408 45.3281 1.85305 45.3281 1.54374C45.3281 1.23443 45.5792 0.983398 45.8885 0.983398C48.0514 0.983398 49.8109 2.74399 49.8109 4.90579V28.4401C49.8109 29.9844 51.0671 31.2418 52.6126 31.2418C52.9219 31.2418 53.1729 31.4928 53.1729 31.8022C53.1729 32.1115 52.9219 32.3625 52.6126 32.3625Z" fill="#263238"/>
<path d="M52.612 32.3625C52.3027 32.3625 52.0516 32.1114 52.0516 31.8021C52.0516 31.4928 52.3027 31.2418 52.612 31.2418C54.1574 31.2418 55.4137 29.9844 55.4137 28.4401V13.3109H50.9309C50.6216 13.3109 50.3706 13.0598 50.3706 12.7505C50.3706 12.4412 50.6216 12.1902 50.9309 12.1902H55.974C56.2833 12.1902 56.5344 12.4412 56.5344 12.7505V28.4401C56.5344 30.6019 54.7749 32.3625 52.612 32.3625Z" fill="#263238"/>
<path d="M26.8355 30.1212H15.6287C15.3194 30.1212 15.0684 29.8701 15.0684 29.5608C15.0684 29.2515 15.3194 29.0005 15.6287 29.0005H26.8355C27.1448 29.0005 27.3959 29.2515 27.3959 29.5608C27.3959 29.8701 27.1448 30.1212 26.8355 30.1212Z" fill="#263238"/>
<path d="M26.8355 33.4832H15.6287C15.3194 33.4832 15.0684 33.2322 15.0684 32.9229C15.0684 32.6136 15.3194 32.3625 15.6287 32.3625H26.8355C27.1448 32.3625 27.3959 32.6136 27.3959 32.9229C27.3959 33.2322 27.1448 33.4832 26.8355 33.4832Z" fill="#263238"/>
<path d="M26.8355 36.8452H15.6287C15.3194 36.8452 15.0684 36.5941 15.0684 36.2848C15.0684 35.9755 15.3194 35.7245 15.6287 35.7245H26.8355C27.1448 35.7245 27.3959 35.9755 27.3959 36.2848C27.3959 36.5941 27.1448 36.8452 26.8355 36.8452Z" fill="#263238"/>
<path d="M31.3183 44.1297H15.6287C15.3194 44.1297 15.0684 43.8786 15.0684 43.5693C15.0684 43.26 15.3194 43.009 15.6287 43.009H31.3183C31.6276 43.009 31.8786 43.26 31.8786 43.5693C31.8786 43.8786 31.6276 44.1297 31.3183 44.1297Z" fill="#263238"/>
<path d="M31.3183 49.733H15.6287C15.3194 49.733 15.0684 49.482 15.0684 49.1727C15.0684 48.8634 15.3194 48.6124 15.6287 48.6124H31.3183C31.6276 48.6124 31.8786 48.8634 31.8786 49.1727C31.8786 49.482 31.6276 49.733 31.3183 49.733Z" fill="#263238"/>
<path d="M10.0265 27.1793C14.978 27.1793 18.9919 23.1653 18.9919 18.2138C18.9919 13.2623 14.978 9.24835 10.0265 9.24835C5.07501 9.24835 1.06104 13.2623 1.06104 18.2138C1.06104 23.1653 5.07501 27.1793 10.0265 27.1793Z" fill="#FFD740"/>
<path d="M10.0258 27.7396C4.77316 27.7396 0.5 23.4665 0.5 18.2138C0.5 12.9612 4.77316 8.68805 10.0258 8.68805C15.2784 8.68805 19.5516 12.9612 19.5516 18.2138C19.5516 23.4665 15.2784 27.7396 10.0258 27.7396ZM10.0258 9.80873C5.39066 9.80873 1.62068 13.5787 1.62068 18.2138C1.62068 22.849 5.39066 26.619 10.0258 26.619C14.6609 26.619 18.4309 22.849 18.4309 18.2138C18.4309 13.5787 14.6609 9.80873 10.0258 9.80873Z" fill="#263238"/>
<path d="M10.0257 58.1382C9.95395 58.1382 9.87998 58.1247 9.81162 58.0956C9.60206 58.0093 9.46533 57.8042 9.46533 57.5778V29.4207C9.46533 29.1114 9.71636 28.8604 10.0257 28.8604C10.335 28.8604 10.586 29.1114 10.586 29.4207V56.2252L12.4307 54.3805C12.6492 54.162 13.0044 54.162 13.223 54.3805L15.628 56.7855L18.0329 54.3805C18.2515 54.162 18.6067 54.162 18.8253 54.3805L21.2303 56.7855L23.6352 54.3805C23.8538 54.162 24.209 54.162 24.4276 54.3805L26.8325 56.7855L29.2375 54.3805C29.4561 54.162 29.8113 54.162 30.0298 54.3805L32.8316 57.1822C33.0501 57.4008 33.0501 57.756 32.8316 57.9746C32.613 58.1931 32.2578 58.1931 32.0392 57.9746L29.6376 55.5684L27.2326 57.9734C27.0141 58.192 26.6588 58.192 26.4403 57.9734L24.0342 55.5684L21.6292 57.9734C21.4107 58.192 21.0554 58.192 20.8369 57.9734L18.4308 55.5684L16.0258 57.9734C15.8073 58.192 15.452 58.192 15.2335 57.9734L12.8274 55.5684L10.4224 57.9734C10.3148 58.081 10.1714 58.1382 10.0257 58.1382Z" fill="#263238"/>
<path d="M42.5255 32.3625C42.2161 32.3625 41.9651 32.1115 41.9651 31.8022V4.90579C41.9651 3.80864 42.4167 2.81683 43.1452 2.10408H13.3877C11.8423 2.10408 10.586 3.36149 10.586 4.90579V7.00706C10.586 7.31637 10.335 7.56741 10.0257 7.56741C9.71636 7.56741 9.46533 7.31637 9.46533 7.00706V4.90579C9.46533 2.74287 11.2248 0.983398 13.3877 0.983398H45.8875C46.1968 0.983398 46.4478 1.23443 46.4478 1.54374C46.4478 1.85305 46.1968 2.10408 45.8875 2.10408C44.3421 2.10408 43.0858 3.36149 43.0858 4.90579V31.8022C43.0858 32.1115 42.8348 32.3625 42.5255 32.3625Z" fill="#263238"/>
<path d="M29.0782 62.621H17.8714C17.5621 62.621 17.311 62.37 17.311 62.0606C17.311 61.7513 17.5621 61.5003 17.8714 61.5003H29.0782C29.3875 61.5003 29.6385 61.7513 29.6385 62.0606C29.6385 62.37 29.3875 62.621 29.0782 62.621Z" fill="#263238"/>
<path d="M15.6288 62.621H14.5081C14.1988 62.621 13.9478 62.37 13.9478 62.0606C13.9478 61.7513 14.1988 61.5003 14.5081 61.5003H15.6288C15.9381 61.5003 16.1891 61.7513 16.1891 62.0606C16.1891 62.37 15.9381 62.621 15.6288 62.621Z" fill="#263238"/>
<path d="M64.9396 9.94881H60.4568C60.1475 9.94881 59.8965 9.69777 59.8965 9.38847C59.8965 9.07916 60.1475 8.82812 60.4568 8.82812H64.9396C65.2489 8.82812 65.4999 9.07916 65.4999 9.38847C65.4999 9.69777 65.2489 9.94881 64.9396 9.94881Z" fill="#263238"/>
<path d="M58.2145 4.34541H53.7317C53.4224 4.34541 53.1714 4.09438 53.1714 3.78507C53.1714 3.47576 53.4224 3.22473 53.7317 3.22473H58.2145C58.5238 3.22473 58.7748 3.47576 58.7748 3.78507C58.7748 4.09438 58.5238 4.34541 58.2145 4.34541Z" fill="#263238"/>
<path d="M55.9729 6.58681C55.6636 6.58681 55.4126 6.33577 55.4126 6.02647V1.54374C55.4126 1.23443 55.6636 0.983398 55.9729 0.983398C56.2822 0.983398 56.5333 1.23443 56.5333 1.54374V6.02647C56.5333 6.33577 56.2822 6.58681 55.9729 6.58681Z" fill="#263238"/>
<path d="M62.698 12.1901C62.3887 12.1901 62.1377 11.9391 62.1377 11.6298V7.14707C62.1377 6.83776 62.3887 6.58673 62.698 6.58673C63.0073 6.58673 63.2584 6.83776 63.2584 7.14707V11.6298C63.2584 11.9391 63.0073 12.1901 62.698 12.1901Z" fill="#263238"/>
<path d="M38.0421 12.1901H26.8352C26.5259 12.1901 26.2749 11.9391 26.2749 11.6298V7.14707C26.2749 6.83776 26.5259 6.58673 26.8352 6.58673H38.0421C38.3514 6.58673 38.6024 6.83776 38.6024 7.14707V11.6298C38.6024 11.9391 38.3514 12.1901 38.0421 12.1901ZM27.3956 11.0695H37.4817V7.70741H27.3956V11.0695Z" fill="#263238"/>
<path d="M5.48362 20.2425V18.2805H8.72362C9.83962 18.2805 10.6376 18.0465 11.1176 17.5785C11.6096 17.1105 11.8556 16.5405 11.8556 15.8685C11.8556 15.0165 11.5856 14.3445 11.0456 13.8525C10.5176 13.3485 9.68962 13.1025 8.56162 13.1145H4.42162V11.8545H15.8876V13.1145H11.3516L11.9996 12.4485C12.8036 12.7965 13.3736 13.2885 13.7096 13.9245C14.0456 14.5485 14.2136 15.2325 14.2136 15.9765C14.2136 16.8645 13.9976 17.6325 13.5656 18.2805C13.1336 18.9165 12.5216 19.4025 11.7296 19.7385C10.9376 20.0745 9.98362 20.2425 8.86762 20.2425H5.48362ZM11.9276 24.4545L8.63362 19.4145H11.1356L14.4476 24.4545H11.9276ZM4.42162 15.6165V14.3565H15.8876V15.6165H4.42162Z" fill="#263238"/>
</svg>
