<svg width="81" height="61" viewBox="0 0 81 61" fill="none" xmlns="http://www.w3.org/2000/svg">
<path d="M3.46729 3.78009H77.5312V58.8965H3.46729V3.78009Z" fill="white"/>
<path d="M77.5326 59.2376H3.46859C3.37811 59.2376 3.29134 59.2017 3.22736 59.1377C3.16338 59.0737 3.12744 58.9869 3.12744 58.8965V3.78006C3.12744 3.68958 3.16338 3.6028 3.22736 3.53882C3.29134 3.47485 3.37811 3.4389 3.46859 3.4389H77.5326C77.623 3.4389 77.7098 3.47485 77.7738 3.53882C77.8378 3.6028 77.8737 3.68958 77.8737 3.78006V58.8965C77.8737 58.9869 77.8378 59.0737 77.7738 59.1377C77.7098 59.2017 77.623 59.2376 77.5326 59.2376ZM3.80974 58.5553H77.1914V4.12121H3.80974V58.5553Z" fill="#093F68"/>
<path d="M78.3202 55.9421H2.68011C1.66457 55.9421 0.841309 56.7653 0.841309 57.7809V58.5587C0.841309 59.5743 1.66457 60.3975 2.68011 60.3975H78.3202C79.3357 60.3975 80.159 59.5743 80.159 58.5587V57.7809C80.159 56.7653 79.3357 55.9421 78.3202 55.9421Z" fill="#68E1FD"/>
<path d="M78.32 60.725H2.67996C2.10239 60.725 1.54842 60.4958 1.1397 60.0877C0.730977 59.6796 0.500904 59.126 0.5 58.5484V57.7672C0.506281 57.1929 0.738617 56.6442 1.14666 56.24C1.55471 55.8357 2.1056 55.6086 2.67996 55.6077H78.32C78.8979 55.6086 79.4519 55.8386 79.8605 56.2472C80.2691 56.6558 80.4991 57.2098 80.5 57.7877V58.5689C80.4937 59.1429 80.2613 59.6913 79.8531 60.095C79.445 60.4986 78.8941 60.725 78.32 60.725ZM2.67996 56.29C2.28303 56.2909 1.90262 56.449 1.62195 56.7297C1.34128 57.0103 1.1832 57.3908 1.1823 57.7877V58.5689C1.18857 58.962 1.34912 59.3368 1.62931 59.6125C1.9095 59.8882 2.28686 60.0427 2.67996 60.0427H78.32C78.7167 60.0427 79.0971 59.8854 79.3778 59.6053C79.6586 59.3251 79.8168 58.9451 79.8177 58.5484V57.7672C79.8168 57.3703 79.6587 56.9899 79.378 56.7092C79.0974 56.4285 78.717 56.2705 78.32 56.2696L2.67996 56.29Z" fill="#093F68"/>
<path d="M78.3202 0.327454H2.68011C1.66457 0.327454 0.841309 1.15071 0.841309 2.16626V2.94408C0.841309 3.95963 1.66457 4.78289 2.68011 4.78289H78.3202C79.3357 4.78289 80.159 3.95963 80.159 2.94408V2.16626C80.159 1.15071 79.3357 0.327454 78.3202 0.327454Z" fill="#68E1FD"/>
<path d="M78.32 5.11727H2.67996C2.10207 5.11637 1.54812 4.8864 1.13949 4.47778C0.730866 4.06915 0.500902 3.5152 0.5 2.93731V2.1629C0.504501 1.5877 0.73616 1.03759 1.14449 0.632452C1.55283 0.227312 2.10474 -1.76085e-05 2.67996 1.02298e-09H78.32C78.8976 -7.06227e-07 79.4516 0.229204 79.8603 0.637288C80.269 1.04537 80.4991 1.59898 80.5 2.17654V2.95778C80.4937 3.53211 80.2614 4.08083 79.8533 4.48504C79.4453 4.88926 78.8944 5.11641 78.32 5.11727ZM2.67996 0.682303C2.28334 0.682302 1.90293 0.839622 1.62216 1.11975C1.34139 1.39988 1.18321 1.77993 1.1823 2.17654V2.95778C1.18856 3.35115 1.349 3.72633 1.62909 4.0026C1.90919 4.27886 2.28654 4.43412 2.67996 4.43497H78.32C78.717 4.43407 79.0974 4.27599 79.378 3.99532C79.6587 3.71465 79.8168 3.33424 79.8177 2.93731V2.1629C79.8132 1.76866 79.6534 1.39209 79.3731 1.11491C79.0927 0.837722 78.7143 0.682277 78.32 0.682303H2.67996Z" fill="#093F68"/>
<path d="M60.7096 30.3182V30.3523C60.7071 33.1173 60.1358 35.8522 59.0313 38.387C57.9268 40.9218 56.3126 43.2023 54.2891 45.0866C54.0981 45.264 53.9036 45.4448 53.7023 45.612C50.2296 48.6086 45.8405 50.3343 41.2567 50.5052C36.673 50.6762 32.1676 49.2823 28.4812 46.5526C24.7949 43.823 22.1472 39.9202 20.9734 35.486C19.7997 31.0519 20.1698 26.3502 22.0229 22.1543C23.876 17.9584 27.1018 14.518 31.1698 12.3988C35.2378 10.2796 39.9059 9.60777 44.4064 10.4938C48.9069 11.3799 52.972 13.7711 55.9331 17.2742C58.8942 20.7773 60.5751 25.1837 60.6993 29.7689V29.8269C60.7028 29.9907 60.7096 30.151 60.7096 30.3182Z" fill="#68E1FD"/>
<path d="M40.4998 50.8691C36.4599 50.8689 32.5097 49.6778 29.143 47.4448C25.7764 45.2117 23.1427 42.0357 21.5713 38.314C19.9999 34.5922 19.5604 30.4898 20.3079 26.5196C21.0554 22.5495 22.9567 18.8878 25.774 15.9923C28.5913 13.0969 32.1997 11.0961 36.1479 10.2403C40.0961 9.38452 44.209 9.71157 47.9724 11.1806C51.7357 12.6496 54.9825 15.1955 57.3069 18.4998C59.6312 21.8041 60.9298 25.7202 61.0405 29.7586V29.8269V30.3181V30.3522C61.0299 33.1624 60.4455 35.9409 59.3233 38.5173C58.2011 41.0937 56.5647 43.4139 54.5143 45.3356C54.313 45.5198 54.1186 45.7006 53.9105 45.8712C50.186 49.0944 45.4253 50.8686 40.4998 50.8691ZM40.4998 10.4529C37.2928 10.4509 34.133 11.2251 31.2903 12.7096C28.4476 14.194 26.0065 16.3445 24.1754 18.9774C22.3444 21.6103 21.1779 24.6472 20.7755 27.8288C20.3732 31.0105 20.747 34.2422 21.865 37.248C22.9829 40.2538 24.8119 42.9443 27.1956 45.0896C29.5793 47.235 32.4469 48.7715 35.5534 49.5679C38.6599 50.3642 41.913 50.3968 45.0349 49.6627C48.1567 48.9287 51.0545 47.4499 53.4806 45.3527C53.6819 45.1855 53.8695 45.0115 54.0606 44.8341C56.0415 42.9782 57.6227 40.7374 58.7074 38.249C59.792 35.7606 60.3572 33.077 60.3685 30.3625L60.7096 30.3284H60.3685C60.3685 30.168 60.3685 30.0111 60.3685 29.8542V29.7791C60.2271 24.6042 58.0716 19.6888 54.3607 16.0792C50.6498 12.4696 45.6766 10.451 40.4998 10.4529Z" fill="#093F68"/>
<path d="M60.7098 30.3182V30.3523C51.7205 30.3898 40.5 30.3182 40.5 30.3182V10.1118C45.7641 10.1116 50.8204 12.1657 54.593 15.837C58.3655 19.5082 60.5565 24.5068 60.6996 29.7689V29.8269C60.703 29.9906 60.7098 30.151 60.7098 30.3182Z" fill="#F56132"/>
<path d="M54.9369 30.7036C47.6089 30.7036 40.5846 30.6627 40.4959 30.6593C40.4055 30.6593 40.3187 30.6233 40.2547 30.5593C40.1907 30.4954 40.1548 30.4086 40.1548 30.3181V10.1117C40.1548 10.0212 40.1907 9.93447 40.2547 9.87049C40.3187 9.80651 40.4055 9.77057 40.4959 9.77057C45.8485 9.77123 50.9896 11.8602 54.8256 15.593C58.6617 19.3259 60.8901 24.4081 61.0367 29.7586V29.8269V30.3181V30.3522C61.0367 30.4427 61.0007 30.5295 60.9367 30.5935C60.8728 30.6574 60.786 30.6934 60.6955 30.6934C58.8465 30.7036 56.8746 30.7036 54.9369 30.7036ZM40.8405 29.9804C42.7578 29.9804 52.4124 30.0418 60.3646 30.0111C60.3646 29.9565 60.3646 29.9019 60.3646 29.8439V29.7689C60.2222 24.6554 58.113 19.7939 54.4762 16.1965C50.8394 12.5991 45.9552 10.543 40.8405 10.4563V29.9804Z" fill="#093F68"/>
<path d="M60.7098 30.3181V30.3522C60.7073 33.1172 60.1361 35.8521 59.0315 38.3869C57.927 40.9217 56.3128 43.2022 54.2893 45.0866C54.0983 45.264 53.9038 45.4448 53.7026 45.6119L40.5 30.3181H60.7098Z" fill="#70CC40"/>
<path d="M53.703 45.9531C53.6543 45.9526 53.6062 45.9417 53.5621 45.9211C53.518 45.9005 53.4787 45.8707 53.4471 45.8337L40.2411 30.5433C40.1985 30.4937 40.1711 30.433 40.162 30.3683C40.1529 30.3036 40.1626 30.2376 40.1899 30.1783C40.2169 30.1184 40.2605 30.0676 40.3155 30.0319C40.3706 29.9962 40.4348 29.9771 40.5004 29.977H60.7102C60.8007 29.977 60.8875 30.0129 60.9514 30.0769C61.0154 30.1409 61.0514 30.2277 61.0514 30.3181V30.3523C61.0407 33.1624 60.4564 35.9409 59.3342 38.5173C58.212 41.0937 56.5755 43.4139 54.5251 45.3356C54.3239 45.5198 54.1294 45.7007 53.9213 45.8712C53.8604 45.9233 53.7831 45.9523 53.703 45.9531ZM41.2441 30.6593L53.7371 45.1309L54.0612 44.8341C56.0053 43.0121 57.5648 40.8192 58.6476 38.3846C59.7304 35.9501 60.3146 33.3233 60.3656 30.6593H41.2441Z" fill="#093F68"/>
<path d="M52.584 20.5783C52.5115 20.5781 52.4409 20.5548 52.3825 20.5118C52.3241 20.4688 52.2809 20.4083 52.2592 20.3391C52.2376 20.2698 52.2385 20.1955 52.2619 20.1269C52.2854 20.0583 52.3301 19.9989 52.3895 19.9574L62.2386 13.1343C62.2757 13.1085 62.3175 13.0903 62.3617 13.0807C62.4059 13.0712 62.4515 13.0705 62.4959 13.0788C62.5404 13.087 62.5827 13.104 62.6205 13.1288C62.6583 13.1536 62.6909 13.1856 62.7162 13.223C62.7673 13.2977 62.7867 13.3896 62.7701 13.4785C62.7534 13.5674 62.7021 13.6461 62.6275 13.6972L52.7785 20.5203C52.721 20.5589 52.6532 20.5791 52.584 20.5783Z" fill="#093F68"/>
<path d="M63.9366 45.953C63.8915 45.9528 63.8468 45.9436 63.8052 45.9261C63.7637 45.9085 63.726 45.8828 63.6944 45.8506L54.8006 36.7862C54.7372 36.7215 54.7022 36.6343 54.7031 36.5438C54.7041 36.4533 54.741 36.3668 54.8057 36.3035C54.8704 36.2402 54.9576 36.2051 55.0481 36.2061C55.1386 36.207 55.2251 36.2439 55.2884 36.3086L64.1822 45.373C64.2458 45.4369 64.2814 45.5234 64.2814 45.6135C64.2814 45.7036 64.2458 45.7901 64.1822 45.854C64.1499 45.8861 64.1116 45.9113 64.0694 45.9283C64.0272 45.9453 63.9821 45.9537 63.9366 45.953Z" fill="#093F68"/>
<path d="M23.9542 47.9693H18.4139C18.3234 47.9693 18.2367 47.9334 18.1727 47.8694C18.1087 47.8054 18.0728 47.7187 18.0728 47.6282C18.0728 47.5377 18.1087 47.4509 18.1727 47.387C18.2367 47.323 18.3234 47.287 18.4139 47.287H23.7836L31.173 37.7553C31.2286 37.6838 31.3104 37.6374 31.4003 37.6262C31.4902 37.615 31.5808 37.6399 31.6523 37.6956C31.7238 37.7512 31.7702 37.833 31.7814 37.9229C31.7926 38.0128 31.7676 38.1034 31.712 38.1749L24.2067 47.8397C24.1764 47.8782 24.1381 47.9097 24.0946 47.932C24.051 47.9544 24.0031 47.9671 23.9542 47.9693Z" fill="#093F68"/>
<path d="M14.914 44.8239H7.74984C7.65936 44.8239 7.57259 44.788 7.50861 44.724C7.44463 44.66 7.40869 44.5732 7.40869 44.4828C7.40869 44.3923 7.44463 44.3055 7.50861 44.2415C7.57259 44.1775 7.65936 44.1416 7.74984 44.1416H14.914C15.0045 44.1416 15.0913 44.1775 15.1553 44.2415C15.2192 44.3055 15.2552 44.3923 15.2552 44.4828C15.2552 44.5732 15.2192 44.66 15.1553 44.724C15.0913 44.788 15.0045 44.8239 14.914 44.8239Z" fill="#68E1FD"/>
<path d="M14.914 47.9694H7.74984C7.65936 47.9694 7.57259 47.9335 7.50861 47.8695C7.44463 47.8055 7.40869 47.7187 7.40869 47.6283C7.40869 47.5378 7.44463 47.451 7.50861 47.387C7.57259 47.3231 7.65936 47.2871 7.74984 47.2871H14.914C15.0045 47.2871 15.0913 47.3231 15.1553 47.387C15.2192 47.451 15.2552 47.5378 15.2552 47.6283C15.2552 47.7187 15.2192 47.8055 15.1553 47.8695C15.0913 47.9335 15.0045 47.9694 14.914 47.9694Z" fill="#68E1FD"/>
<path d="M12.3588 51.1182H7.74984C7.65936 51.1182 7.57259 51.0822 7.50861 51.0182C7.44463 50.9543 7.40869 50.8675 7.40869 50.777C7.40869 50.6865 7.44463 50.5998 7.50861 50.5358C7.57259 50.4718 7.65936 50.4359 7.74984 50.4359H12.3656C12.4561 50.4359 12.5429 50.4718 12.6069 50.5358C12.6708 50.5998 12.7068 50.6865 12.7068 50.777C12.7068 50.8675 12.6708 50.9543 12.6069 51.0182C12.5429 51.0822 12.4561 51.1182 12.3656 51.1182H12.3588Z" fill="#68E1FD"/>
<path d="M72.7621 47.9694H65.5809C65.4904 47.9694 65.4037 47.9335 65.3397 47.8695C65.2757 47.8055 65.2397 47.7187 65.2397 47.6283C65.2397 47.5378 65.2757 47.451 65.3397 47.387C65.4037 47.3231 65.4904 47.2871 65.5809 47.2871H72.7621C72.8526 47.2871 72.9394 47.3231 73.0034 47.387C73.0673 47.451 73.1033 47.5378 73.1033 47.6283C73.1033 47.7187 73.0673 47.8055 73.0034 47.8695C72.9394 47.9335 72.8526 47.9694 72.7621 47.9694Z" fill="#70CC40"/>
<path d="M70.1967 51.1182H65.5809C65.4904 51.1182 65.4037 51.0822 65.3397 51.0182C65.2757 50.9543 65.2397 50.8675 65.2397 50.777C65.2397 50.6865 65.2757 50.5998 65.3397 50.5358C65.4037 50.4718 65.4904 50.4359 65.5809 50.4359H70.1967C70.2872 50.4359 70.3739 50.4718 70.4379 50.5358C70.5019 50.5998 70.5378 50.6865 70.5378 50.777C70.5378 50.8675 70.5019 50.9543 70.4379 51.0182C70.3739 51.0822 70.2872 51.1182 70.1967 51.1182Z" fill="#70CC40"/>
<path d="M72.5063 10.62H65.3216C65.2311 10.62 65.1444 10.5841 65.0804 10.5201C65.0164 10.4561 64.9805 10.3694 64.9805 10.2789C64.9805 10.1884 65.0164 10.1016 65.0804 10.0377C65.1444 9.97369 65.2311 9.93774 65.3216 9.93774H72.5063C72.5967 9.93774 72.6835 9.97369 72.7475 10.0377C72.8115 10.1016 72.8474 10.1884 72.8474 10.2789C72.8474 10.3694 72.8115 10.4561 72.7475 10.5201C72.6835 10.5841 72.5967 10.62 72.5063 10.62Z" fill="#F56132"/>
<path d="M72.5063 13.7655H65.3216C65.2311 13.7655 65.1444 13.7296 65.0804 13.6656C65.0164 13.6016 64.9805 13.5148 64.9805 13.4243C64.9805 13.3339 65.0164 13.2471 65.0804 13.1831C65.1444 13.1191 65.2311 13.0832 65.3216 13.0832H72.5063C72.5967 13.0832 72.6835 13.1191 72.7475 13.1831C72.8115 13.2471 72.8474 13.3339 72.8474 13.4243C72.8474 13.5148 72.8115 13.6016 72.7475 13.6656C72.6835 13.7296 72.5967 13.7655 72.5063 13.7655Z" fill="#F56132"/>
<path d="M69.9408 16.9143H65.3216C65.2311 16.9143 65.1444 16.8784 65.0804 16.8144C65.0164 16.7504 64.9805 16.6636 64.9805 16.5731C64.9805 16.4827 65.0164 16.3959 65.0804 16.3319C65.1444 16.2679 65.2311 16.232 65.3216 16.232H69.9408C70.0313 16.232 70.1181 16.2679 70.182 16.3319C70.246 16.3959 70.282 16.4827 70.282 16.5731C70.282 16.6636 70.246 16.7504 70.182 16.8144C70.1181 16.8784 70.0313 16.9143 69.9408 16.9143Z" fill="#F56132"/>
<path d="M19.3687 19.3603H6.81771C6.72723 19.3603 6.64046 19.3244 6.57649 19.2604C6.51251 19.1964 6.47656 19.1096 6.47656 19.0192V7.84646C6.47656 7.75598 6.51251 7.66921 6.57649 7.60523C6.64046 7.54125 6.72723 7.50531 6.81771 7.50531H19.3687C19.4592 7.50531 19.5459 7.54125 19.6099 7.60523C19.6739 7.66921 19.7098 7.75598 19.7098 7.84646V19.0362C19.7054 19.1237 19.6676 19.2062 19.6041 19.2665C19.5406 19.3268 19.4563 19.3604 19.3687 19.3603ZM7.15887 18.678H19.0275V8.18761H7.15887V18.678Z" fill="#DFEAEF"/>
<path d="M19.3687 11.0976H6.81771C6.72723 11.0976 6.64046 11.0617 6.57649 10.9977C6.51251 10.9337 6.47656 10.847 6.47656 10.7565C6.47656 10.666 6.51251 10.5792 6.57649 10.5153C6.64046 10.4513 6.72723 10.4153 6.81771 10.4153H19.3687C19.4592 10.4153 19.5459 10.4513 19.6099 10.5153C19.6739 10.5792 19.7098 10.666 19.7098 10.7565C19.7098 10.847 19.6739 10.9337 19.6099 10.9977C19.5459 11.0617 19.4592 11.0976 19.3687 11.0976Z" fill="#DFEAEF"/>
<path d="M10.099 19.3603C10.0085 19.3603 9.92171 19.3244 9.85773 19.2604C9.79375 19.1964 9.75781 19.1096 9.75781 19.0192V7.84646C9.75781 7.75598 9.79375 7.66921 9.85773 7.60523C9.92171 7.54125 10.0085 7.50531 10.099 7.50531C10.1894 7.50531 10.2762 7.54125 10.3402 7.60523C10.4042 7.66921 10.4401 7.75598 10.4401 7.84646V19.0362C10.4357 19.1237 10.3979 19.2062 10.3344 19.2665C10.2708 19.3268 10.1866 19.3604 10.099 19.3603Z" fill="#DFEAEF"/>
<path d="M16.462 23.4816H9.34896C9.25848 23.4816 9.17171 23.4456 9.10773 23.3816C9.04375 23.3177 9.00781 23.2309 9.00781 23.1404C9.00781 23.0499 9.04375 22.9632 9.10773 22.8992C9.17171 22.8352 9.25848 22.7993 9.34896 22.7993H16.462C16.5524 22.7993 16.6392 22.8352 16.7032 22.8992C16.7672 22.9632 16.8031 23.0499 16.8031 23.1404C16.8031 23.2309 16.7672 23.3177 16.7032 23.3816C16.6392 23.4456 16.5524 23.4816 16.462 23.4816Z" fill="#DFEAEF"/>
<path d="M16.4621 26.2175H6.81771C6.72723 26.2175 6.64046 26.1816 6.57649 26.1176C6.51251 26.0536 6.47656 25.9668 6.47656 25.8764C6.47656 25.7859 6.51251 25.6991 6.57649 25.6351C6.64046 25.5712 6.72723 25.5352 6.81771 25.5352H16.4621C16.5525 25.5352 16.6393 25.5712 16.7033 25.6351C16.7673 25.6991 16.8032 25.7859 16.8032 25.8764C16.8032 25.9668 16.7673 26.0536 16.7033 26.1176C16.6393 26.1816 16.5525 26.2175 16.4621 26.2175Z" fill="#DFEAEF"/>
<path d="M16.4621 28.9534H6.81771C6.72723 28.9534 6.64046 28.9174 6.57649 28.8534C6.51251 28.7895 6.47656 28.7027 6.47656 28.6122C6.47656 28.5217 6.51251 28.435 6.57649 28.371C6.64046 28.307 6.72723 28.2711 6.81771 28.2711H16.4621C16.5525 28.2711 16.6393 28.307 16.7033 28.371C16.7673 28.435 16.8032 28.5217 16.8032 28.6122C16.8032 28.7027 16.7673 28.7895 16.7033 28.8534C16.6393 28.9174 16.5525 28.9534 16.4621 28.9534Z" fill="#DFEAEF"/>
<path d="M16.4621 31.6896H6.81771C6.72723 31.6896 6.64046 31.6536 6.57649 31.5896C6.51251 31.5257 6.47656 31.4389 6.47656 31.3484C6.47656 31.2579 6.51251 31.1712 6.57649 31.1072C6.64046 31.0432 6.72723 31.0073 6.81771 31.0073H16.4621C16.5525 31.0073 16.6393 31.0432 16.7033 31.1072C16.7673 31.1712 16.8032 31.2579 16.8032 31.3484C16.8032 31.4389 16.7673 31.5257 16.7033 31.5896C16.6393 31.6536 16.5525 31.6896 16.4621 31.6896Z" fill="#DFEAEF"/>
<path d="M16.4621 34.4255H6.81771C6.72723 34.4255 6.64046 34.3895 6.57649 34.3255C6.51251 34.2616 6.47656 34.1748 6.47656 34.0843C6.47656 33.9938 6.51251 33.9071 6.57649 33.8431C6.64046 33.7791 6.72723 33.7432 6.81771 33.7432H16.4621C16.5525 33.7432 16.6393 33.7791 16.7033 33.8431C16.7673 33.9071 16.8032 33.9938 16.8032 34.0843C16.8032 34.1748 16.7673 34.2616 16.7033 34.3255C16.6393 34.3895 16.5525 34.4255 16.4621 34.4255Z" fill="#DFEAEF"/>
<path d="M73.7379 26.2073H66.6248C66.5344 26.2073 66.4476 26.1713 66.3836 26.1073C66.3196 26.0434 66.2837 25.9566 66.2837 25.8661C66.2837 25.7756 66.3196 25.6889 66.3836 25.6249C66.4476 25.5609 66.5344 25.525 66.6248 25.525H73.7379C73.8283 25.525 73.9151 25.5609 73.9791 25.6249C74.0431 25.6889 74.079 25.7756 74.079 25.8661C74.079 25.9566 74.0431 26.0434 73.9791 26.1073C73.9151 26.1713 73.8283 26.2073 73.7379 26.2073Z" fill="#DFEAEF"/>
<path d="M73.7379 28.9432H64.0936C64.0031 28.9432 63.9163 28.9073 63.8524 28.8433C63.7884 28.7793 63.7524 28.6926 63.7524 28.6021C63.7524 28.5116 63.7884 28.4248 63.8524 28.3608C63.9163 28.2969 64.0031 28.2609 64.0936 28.2609H73.7379C73.8284 28.2609 73.9152 28.2969 73.9792 28.3608C74.0432 28.4248 74.0791 28.5116 74.0791 28.6021C74.0791 28.6926 74.0432 28.7793 73.9792 28.8433C73.9152 28.9073 73.8284 28.9432 73.7379 28.9432Z" fill="#DFEAEF"/>
<path d="M73.7379 31.6794H64.0936C64.0031 31.6794 63.9163 31.6434 63.8524 31.5795C63.7884 31.5155 63.7524 31.4287 63.7524 31.3382C63.7524 31.2477 63.7884 31.161 63.8524 31.097C63.9163 31.033 64.0031 30.9971 64.0936 30.9971H73.7379C73.8284 30.9971 73.9152 31.033 73.9792 31.097C74.0432 31.161 74.0791 31.2477 74.0791 31.3382C74.0791 31.4287 74.0432 31.5155 73.9792 31.5795C73.9152 31.6434 73.8284 31.6794 73.7379 31.6794Z" fill="#DFEAEF"/>
<path d="M73.7379 34.4154H64.0936C64.0031 34.4154 63.9163 34.3795 63.8524 34.3155C63.7884 34.2515 63.7524 34.1647 63.7524 34.0742C63.7524 33.9838 63.7884 33.897 63.8524 33.833C63.9163 33.769 64.0031 33.7331 64.0936 33.7331H73.7379C73.8284 33.7331 73.9152 33.769 73.9792 33.833C74.0432 33.897 74.0791 33.9838 74.0791 34.0742C74.0791 34.1647 74.0432 34.2515 73.9792 34.3155C73.9152 34.3795 73.8284 34.4154 73.7379 34.4154Z" fill="#DFEAEF"/>
<path d="M73.7379 37.1548H64.0936C64.0031 37.1548 63.9163 37.1188 63.8524 37.0549C63.7884 36.9909 63.7524 36.9041 63.7524 36.8136C63.7524 36.7231 63.7884 36.6364 63.8524 36.5724C63.9163 36.5084 64.0031 36.4725 64.0936 36.4725H73.7379C73.8284 36.4725 73.9152 36.5084 73.9792 36.5724C74.0432 36.6364 74.0791 36.7231 74.0791 36.8136C74.0791 36.9041 74.0432 36.9909 73.9792 37.0549C73.9152 37.1188 73.8284 37.1548 73.7379 37.1548Z" fill="#DFEAEF"/>
</svg>
