<svg width="52" height="50" viewBox="0 0 52 50" fill="none" xmlns="http://www.w3.org/2000/svg">
<ellipse cx="25.7634" cy="25" rx="25.7634" ry="25" fill="#F8CA9C"/>
<mask id="mask0_1247_3606" style="mask-type:alpha" maskUnits="userSpaceOnUse" x="13" y="13" width="26" height="24">
<rect x="13.3969" y="13" width="24.7328" height="24" fill="#D9D9D9"/>
</mask>
<g mask="url(#mask0_1247_3606)">
<path d="M17.519 17L19.5801 21H22.6717L20.6106 17H22.6717L24.7328 21H27.8244L25.7633 17H27.8244L29.8855 21H32.9771L30.916 17H34.0076C34.5744 17 35.0596 17.1958 35.4632 17.5875C35.8669 17.9792 36.0687 18.45 36.0687 19V31C36.0687 31.55 35.8669 32.0208 35.4632 32.4125C35.0596 32.8042 34.5744 33 34.0076 33H17.519C16.9523 33 16.467 32.8042 16.0634 32.4125C15.6598 32.0208 15.458 31.55 15.458 31V19C15.458 18.45 15.6598 17.9792 16.0634 17.5875C16.467 17.1958 16.9523 17 17.519 17Z" fill="#9B4E00"/>
</g>
</svg>
