<svg xmlns="http://www.w3.org/2000/svg" width="41.771" height="29.221" viewBox="0 0 41.771 29.221">
  <g id="Group_15577" data-name="Group 15577" transform="translate(-389.537 -523.437)">
    <path id="Path_44033" data-name="Path 44033" d="M4.269,0H14.514a4.269,4.269,0,0,1,4.269,4.269l-.7,7.811c0,1.264-5.224-.647-7.94,1.709-1.98,1.716-.053,7.588-.95,10.116H4.269c-2.358,0,3.906-6.872-.784-13.592L0,7.154V3.461C0,1.1,1.911,0,4.269,0Z" transform="translate(402.739 524.771)" fill="#ffc093"/>
    <g id="dollar" transform="translate(389.537 523.437)">
      <g id="Group_15576" data-name="Group 15576" transform="translate(0 0)">
        <g id="Group_15575" data-name="Group 15575">
          <path id="Path_44031" data-name="Path 44031" d="M41.763,91.6c-.05-1.157-1.182-2.081-3.371-2.746a24.014,24.014,0,0,0-6.184-.866v-8.88a.9.9,0,0,0-.125-.416c-.233-1.007-1.357-1.823-3.346-2.422a24.778,24.778,0,0,0-6.891-.874,24.156,24.156,0,0,0-6.825.874c-1.506.466-3.312,1.332-3.312,2.821a1.533,1.533,0,0,0,.025.275l.092,3.8a9.959,9.959,0,1,0,4.411,17.511,24.613,24.613,0,0,0,5.326.583c.424,2.305,5.418,3.362,10.07,3.362a23.818,23.818,0,0,0,6.825-.891c1.506-.466,3.312-1.34,3.312-2.83V91.762A1.007,1.007,0,0,0,41.763,91.6Zm-11.294-7.89c0,.108-.4.682-2.205,1.232a23.558,23.558,0,0,1-6.408.807,23.811,23.811,0,0,1-5.668-.624c-.025-.008-.042-.008-.067-.017a9.6,9.6,0,0,0-2.6-1.473l-.058-2.347a9.222,9.222,0,0,0,1.8.691,24.6,24.6,0,0,0,6.6.807,24.821,24.821,0,0,0,6.891-.874,9.982,9.982,0,0,0,1.806-.724v2.181A.478.478,0,0,0,30.469,83.714ZM15.522,77.88a22.481,22.481,0,0,1,6.325-.807,23.236,23.236,0,0,1,6.408.807c1.806.549,2.205,1.115,2.205,1.223s-.408.691-2.214,1.232a23.517,23.517,0,0,1-6.4.8,22.851,22.851,0,0,1-6.134-.749c-1.789-.516-2.289-1.082-2.33-1.265,0-.017-.008-.017-.008-.017C13.383,78.945,13.766,78.413,15.522,77.88Zm.025,21.206A8.3,8.3,0,1,1,9.962,84.663a8.477,8.477,0,0,1,2.455.366,8.329,8.329,0,0,1,5.676,6.25,8.7,8.7,0,0,1,.166,1.673A8.246,8.246,0,0,1,15.547,99.086Zm2.114.183a10.049,10.049,0,0,0,1.6-2.738c.707.058,1.44.1,2.205.108v.15l.05,2.821A26,26,0,0,1,17.661,99.269Zm2.222-7.307c.483.033.99.05,1.506.058l.05,2.946c-.583-.008-1.157-.033-1.706-.075a10.23,10.23,0,0,0,.191-1.947C19.924,92.619,19.908,92.295,19.883,91.962Zm2.047-1.6h-.083c-.8,0-1.573-.033-2.289-.083a9.867,9.867,0,0,0-1.49-3.1,29.977,29.977,0,0,0,3.77.241,24.841,24.841,0,0,0,6.9-.874,10.511,10.511,0,0,0,1.8-.716v2.181C26.965,88.117,23.3,88.866,21.93,90.364Zm1.1,1.323a.063.063,0,0,1,.008-.033c.075-.225.666-.774,2.389-1.257a22.65,22.65,0,0,1,5.934-.707H31.5a23.325,23.325,0,0,1,6.408.791c1.773.533,2.189,1.082,2.2,1.207V91.7c-.008.125-.424.7-2.272,1.248a23.119,23.119,0,0,1-6.325.782,23.216,23.216,0,0,1-6.134-.741c-1.789-.516-2.28-1.09-2.33-1.265Zm14.947,10.462a22.22,22.22,0,0,1-6.334.816,22.647,22.647,0,0,1-6.317-.791c-1.756-.541-2.122-1.1-2.122-1.223v-.017l-.042-2.414a10.844,10.844,0,0,0,2.072.757,25.613,25.613,0,0,0,6.25.716,24.611,24.611,0,0,0,6.874-.874,10.666,10.666,0,0,0,1.748-.707v2.5h.008C40.115,101.025,39.732,101.6,37.976,102.149Zm2.147-6.125h-.008c0,.083-.05.183-.05.275,0,.117-.391.682-2.189,1.232a23.026,23.026,0,0,1-6.383.8c-4.611,0-7.715-1.04-8.364-1.848l-.008-.7-.033-1.914a10.212,10.212,0,0,0,1.814.7,24.6,24.6,0,0,0,6.6.807,24.911,24.911,0,0,0,6.8-.849,9.531,9.531,0,0,0,1.823-.716Z" transform="translate(0 -75.4)" fill="#1e44ad"/>
        </g>
      </g>
      <path id="_1608821_rupee_icon" data-name="1608821_rupee_icon" d="M452.516,130.1v.627a.189.189,0,0,1-.2.2h-1.032a2.3,2.3,0,0,1-.792,1.437,3.115,3.115,0,0,1-1.7.676q1.026,1.093,2.819,3.292a.168.168,0,0,1,.025.209.178.178,0,0,1-.178.111h-1.2a.181.181,0,0,1-.154-.074q-1.88-2.254-3.059-3.507a.184.184,0,0,1-.055-.135v-.78a.2.2,0,0,1,.2-.2h.688a2.772,2.772,0,0,0,1.305-.264,1.2,1.2,0,0,0,.63-.768H447.2a.189.189,0,0,1-.2-.2V130.1a.189.189,0,0,1,.2-.2h2.537q-.35-.694-1.646-.694H447.2a.2.2,0,0,1-.2-.2V128.2a.189.189,0,0,1,.2-.2h5.11a.189.189,0,0,1,.2.2v.626a.189.189,0,0,1-.2.2h-1.431a2.125,2.125,0,0,1,.393.884h1.05a.189.189,0,0,1,.2.2Z" transform="translate(-439.181 -114.495)" fill="#1e44ad"/>
    </g>
  </g>
</svg>
