<svg xmlns="http://www.w3.org/2000/svg" width="28.333" height="30" viewBox="0 0 28.333 30">
  <g id="Group_16092" data-name="Group 16092" transform="translate(-176.666 -525)">
    <path id="Path_43972" data-name="Path 43972" d="M54.286,40.424h-12.5c-.432,0-.782-.681-.782-1.524V14.524c0-.843.349-1.524.782-1.524h12.5c.432,0,.782.681.782,1.524V38.9C55.067,39.743,54.718,40.424,54.286,40.424Z" transform="translate(148.734 512.002)" fill="#ffc093"/>
    <g id="_7340549_e-commerce_online_shopping_ui_receipt_icon" data-name="7340549_e-commerce_online_shopping_ui_receipt_icon" transform="translate(170.666 519)">
      <path id="Path_44006" data-name="Path 44006" d="M7.667,11.833h5v20.7a2.5,2.5,0,0,0,1.175,2.125c.775.508,1.142,1.342,2.433,1.342,1.808,0,1.808-1.667,3.608-1.667S21.692,36,23.492,36s1.808-1.667,3.617-1.667S28.908,36,30.716,36c1.3,0,1.667-.833,2.442-1.342a2.5,2.5,0,0,0,1.175-2.125V10.167A4.167,4.167,0,0,0,30.166,6h-20a3.85,3.85,0,0,0-.833.083h0A4.167,4.167,0,0,0,6,10.167a1.667,1.667,0,0,0,1.667,1.667Zm22.5-4.167a2.5,2.5,0,0,1,2.5,2.5V32.533a.833.833,0,0,1-.4.708,6.534,6.534,0,0,0-.875.7c-.408.375-.45.392-.675.392s-.267,0-.675-.392a4.025,4.025,0,0,0-5.833,0c-.408.375-.45.392-.675.392s-.258,0-.667-.392a4.025,4.025,0,0,0-5.833,0c-.408.375-.45.392-.675.392s-.258,0-.667-.392a6.042,6.042,0,0,0-.875-.7.833.833,0,0,1-.4-.708V10.167a5.833,5.833,0,0,0-.558-2.5ZM9.517,7.75h.175a2.55,2.55,0,0,1,.475-.083,2.5,2.5,0,0,1,1.767.725,2.583,2.583,0,0,1,.683,1.275,4.834,4.834,0,0,1,.05.5h-5A2.5,2.5,0,0,1,9.517,7.75Z" fill="#1e44ad"/>
      <path id="Path_44007" data-name="Path 44007" d="M28.833,13.667h5a.833.833,0,0,0,0-1.667h-5a.833.833,0,0,0,0,1.667Z" transform="translate(-3.667 -1)" fill="#1e44ad"/>
      <path id="Path_44008" data-name="Path 44008" d="M28.833,17.667h5a.833.833,0,0,0,0-1.667h-5a.833.833,0,0,0,0,1.667Z" transform="translate(-3.667 -1.667)" fill="#1e44ad"/>
      <path id="Path_44009" data-name="Path 44009" d="M28.833,21.667h5a.833.833,0,0,0,0-1.667h-5a.833.833,0,0,0,0,1.667Z" transform="translate(-3.667 -2.333)" fill="#1e44ad"/>
      <path id="Path_44010" data-name="Path 44010" d="M18.833,26.667H32.167a.833.833,0,0,0,0-1.667H18.833a.833.833,0,0,0,0,1.667Z" transform="translate(-2 -3.167)" fill="#1e44ad"/>
      <path id="Path_44011" data-name="Path 44011" d="M18.833,30.667H32.167a.833.833,0,0,0,0-1.667H18.833a.833.833,0,1,0,0,1.667Z" transform="translate(-2 -3.834)" fill="#1e44ad"/>
      <path id="Path_44012" data-name="Path 44012" d="M19.667,20.333H23a1.667,1.667,0,0,0,1.667-1.667v-5A1.667,1.667,0,0,0,23,12H19.667A1.667,1.667,0,0,0,18,13.667v5A1.667,1.667,0,0,0,19.667,20.333Zm0-6.667H23v5H19.667Z" transform="translate(-2 -1)" fill="#1e44ad"/>
    </g>
  </g>
</svg>
