<svg xmlns="http://www.w3.org/2000/svg" width="22.851" height="30.712" viewBox="0 0 22.851 30.712">
  <g id="Group_15967" data-name="Group 15967" transform="translate(-583.574 -524.288)">
    <path id="Path_44035" data-name="Path 44035" d="M48.856,15.731H41.462c-.256,0-.462-.068-.462-.152V13.152c0-.084.207-.152.462-.152h7.394c.256,0,.462.068.462.152v2.428C49.318,15.663,49.112,15.731,48.856,15.731Z" transform="translate(549.914 511.288)" fill="#ffc093"/>
    <path id="Path_44036" data-name="Path 44036" d="M60.583,22.882H42.152c-.637,0-1.152-.245-1.152-.549V13.549c0-.3.515-.549,1.152-.549H60.583c.637,0,1.152.245,1.152.549v8.784C61.735,22.636,61.22,22.882,60.583,22.882Z" transform="translate(543.605 529.137)" fill="#ffc093"/>
    <g id="report" transform="translate(522.574 525.001)">
      <path id="Path_44017" data-name="Path 44017" d="M82.972,0H61.879A.879.879,0,0,0,61,.879V29.12a.879.879,0,0,0,.879.879H82.972a.879.879,0,0,0,.879-.879V.879A.879.879,0,0,0,82.972,0ZM68.91,1.758h7.031v.879a.862.862,0,0,1-.843.879H69.752a.862.862,0,0,1-.843-.879V1.758ZM82.093,28.241H62.758V1.758h4.394v.879a2.622,2.622,0,0,0,2.6,2.637H75.1a2.622,2.622,0,0,0,2.6-2.637V1.758h4.394Z" fill="#1e44ad"/>
      <path id="Path_44018" data-name="Path 44018" d="M134.181,121.986a.879.879,0,0,0-.879.879v3.227h-1.758V124.23a.879.879,0,1,0-1.758,0v1.862h-1.758v-5.215a.879.879,0,1,0-1.758,0v5.215h-1.758v-.99a.879.879,0,0,0-1.758,0v.99h-.879a.879.879,0,1,0,0,1.758h14.062a.879.879,0,1,0,0-1.758h-.879v-3.227A.879.879,0,0,0,134.181,121.986Z" transform="translate(-56.483 -112.967)" fill="#1e44ad"/>
      <path id="Path_44019" data-name="Path 44019" d="M135.94,284H121.878a.879.879,0,0,0,0,1.758H135.94a.879.879,0,1,0,0-1.758Z" transform="translate(-56.484 -267.36)" fill="#1e44ad"/>
      <path id="Path_44020" data-name="Path 44020" d="M135.94,344H121.878a.879.879,0,0,0,0,1.758H135.94a.879.879,0,1,0,0-1.758Z" transform="translate(-56.484 -323.844)" fill="#1e44ad"/>
      <path id="Path_44021" data-name="Path 44021" d="M128.03,404h-6.152a.879.879,0,0,0,0,1.758h6.152a.879.879,0,1,0,0-1.758Z" transform="translate(-56.484 -380.329)" fill="#1e44ad"/>
    </g>
  </g>
</svg>
