<svg xmlns="http://www.w3.org/2000/svg" width="30" height="30" viewBox="0 0 30 30">
  <g id="linkdin" transform="translate(-1224 -3031)">
    <circle id="Ellipse_849" data-name="Ellipse 849" cx="15" cy="15" r="15" transform="translate(1224 3031)" fill="#32ccfa"/>
    <g id="Group_15741" data-name="Group 15741" transform="translate(-13.34 -1.168)">
      <path id="Path_44111" data-name="Path 44111" d="M145,220.464v6.41h3.243V218H145Z" transform="translate(1100.34 2826.469)" fill="#fff"/>
      <path id="Path_44112" data-name="Path 44112" d="M232.1,218.041a3.1,3.1,0,0,0-2.593,1.122h-.118V218H227v8.874h2.693v-4.3c0-1.155.111-2.268,1.526-2.268s1.411,1.317,1.411,2.349v4.223h2.693V222.1a11.271,11.271,0,0,0-.035-1.305C235.084,219.118,234.358,218.041,232.1,218.041Z" transform="translate(1023.359 2826.469)" fill="#fff"/>
      <path id="Path_44113" data-name="Path 44113" d="M149.232,147.722a1.545,1.545,0,1,0,1.545,1.545A1.544,1.544,0,0,0,149.232,147.722Z" transform="translate(1097.818 2892.445)" fill="#fff"/>
    </g>
  </g>
</svg>
