<svg xmlns="http://www.w3.org/2000/svg" width="30" height="30" viewBox="0 0 30 30">
  <g id="twitter" transform="translate(-1182 -3031)">
    <circle id="Ellipse_848" data-name="Ellipse 848" cx="15" cy="15" r="15" transform="translate(1182 3031)" fill="#00a2f9"/>
    <path id="_317720_social_media_tweet_twitter_social_icon" data-name="317720_social media_tweet_twitter_social_icon" d="M14.168,4.363A5.769,5.769,0,0,1,12.5,4.82a2.917,2.917,0,0,0,1.278-1.607,5.821,5.821,0,0,1-1.846.7A2.91,2.91,0,0,0,6.978,6.569,8.253,8.253,0,0,1,.987,3.532a2.911,2.911,0,0,0,.9,3.881A2.9,2.9,0,0,1,.57,7.049c0,.012,0,.025,0,.036A2.908,2.908,0,0,0,2.9,9.936a2.92,2.92,0,0,1-1.312.05A2.91,2.91,0,0,0,4.3,12,5.83,5.83,0,0,1,.694,13.249,5.874,5.874,0,0,1,0,13.209a8.233,8.233,0,0,0,4.455,1.305,8.214,8.214,0,0,0,8.27-8.27c0-.126,0-.252-.009-.376A5.9,5.9,0,0,0,14.168,4.363Z" transform="translate(1189.998 3036.999)" fill="#fff"/>
  </g>
</svg>
