<svg xmlns="http://www.w3.org/2000/svg" width="59" height="59" viewBox="0 0 59 59">
  <g id="Group_15495" data-name="Group 15495" transform="translate(-280 -2325)">
    <circle id="Ellipse_816" data-name="Ellipse 816" cx="13" cy="13" r="13" transform="translate(308 2330)" fill="#ffc093"/>
    <rect id="Rectangle_13632" data-name="Rectangle 13632" width="7" height="28" transform="translate(287 2327)" fill="#ffc093"/>
    <g id="_3709746_customer_evaluation_review_satisfaction_system_icon" data-name="3709746_customer_evaluation_review_satisfaction_system_icon" transform="translate(279 2324)">
      <path id="Path_43994" data-name="Path 43994" d="M60,22.674V15.486l-3.549-.909a15.2,15.2,0,0,0-1.072-2.592l1.866-3.15L52.163,3.753l-3.15,1.866a15.133,15.133,0,0,0-2.592-1.072L45.513,1H38.325l-.909,3.549A15.2,15.2,0,0,0,34.824,5.62l-3.15-1.866L30.624,4.806h-14.4V3.855A2.858,2.858,0,0,0,13.371,1H9.565A2.858,2.858,0,0,0,6.71,3.855v.952H1V60H44.774V37.161h.738l.909-3.549a15.2,15.2,0,0,0,2.592-1.072l3.15,1.866,5.083-5.083-1.866-3.15a15.133,15.133,0,0,0,1.072-2.592ZM14.323,29.548h-1.9V14.323h1.9ZM8.613,14.323h1.9V29.548h-1.9ZM13.5,31.452l-2.029,3.042L9.439,31.452Zm.826-19.032H8.613v-1.9h5.71ZM11.468,37.925l3.047-4.571h1.711v7.613H6.71V33.355H8.421ZM9.565,2.9h3.806a.952.952,0,0,1,.952.952V8.613H8.613V3.855A.952.952,0,0,1,9.565,2.9ZM42.871,58.1H2.9V6.71H6.71V30.788l.443.663H4.806V42.871H18.129V31.452H15.783l.443-.663V6.71H28.72L26.594,8.837l1.866,3.15a15.133,15.133,0,0,0-1.072,2.592l-3.55.909v7.188l3.549.909a15.2,15.2,0,0,0,1.072,2.592l-1.866,3.15,5.083,5.083,3.15-1.866a15.133,15.133,0,0,0,2.592,1.072l.909,3.548h4.545ZM54.914,22.012l-.145.536a13.228,13.228,0,0,1-1.309,3.17l-.278.482,1.674,2.824-2.994,2.994-2.824-1.674-.482.278a13.228,13.228,0,0,1-3.17,1.309l-.536.145-.815,3.183H39.8l-.815-3.183-.536-.145a13.228,13.228,0,0,1-3.17-1.309l-.482-.278-2.824,1.674-2.994-2.994L30.658,26.2l-.278-.482a13.228,13.228,0,0,1-1.309-3.17l-.145-.536L25.742,21.2V16.965l3.183-.815.145-.536a13.228,13.228,0,0,1,1.309-3.17l.278-.482L28.983,9.139l2.994-2.994L34.8,7.819l.482-.278a13.228,13.228,0,0,1,3.17-1.309l.536-.145L39.8,2.9h4.232l.815,3.183.536.145a13.228,13.228,0,0,1,3.17,1.309l.482.278,2.824-1.674,2.994,2.994-1.674,2.824.278.482a13.228,13.228,0,0,1,1.309,3.17l.145.536,3.184.815V21.2Z" fill="#1e44ad"/>
      <path id="Path_43995" data-name="Path 43995" d="M43.419,8A11.419,11.419,0,1,0,54.839,19.419,11.432,11.432,0,0,0,43.419,8Zm0,20.935a9.516,9.516,0,1,1,9.516-9.516A9.527,9.527,0,0,1,43.419,28.935Z" transform="translate(-1.5 -0.339)" fill="#1e44ad"/>
      <path id="Path_43996" data-name="Path 43996" d="M43.613,12a7.613,7.613,0,1,0,7.613,7.613A7.622,7.622,0,0,0,43.613,12Zm0,13.323a5.71,5.71,0,1,1,5.71-5.71A5.715,5.715,0,0,1,43.613,25.323Z" transform="translate(-1.694 -0.532)" fill="#1e44ad"/>
      <path id="Path_43997" data-name="Path 43997" d="M18.6,45.293l-1.624,1.624H5V58.337H18.323V48.263l1.624-1.624ZM16.419,56.434H6.9V48.821h8.171L10.71,53.185l-1.23-1.23L8.134,53.3l2.576,2.576,5.71-5.71Z" transform="translate(-0.194 -2.143)" fill="#1e44ad"/>
      <rect id="Rectangle_13617" data-name="Rectangle 13617" width="2" height="2" transform="translate(39 54)" fill="#1e44ad"/>
      <rect id="Rectangle_13618" data-name="Rectangle 13618" width="17" height="2" transform="translate(20 54)" fill="#1e44ad"/>
      <rect id="Rectangle_13619" data-name="Rectangle 13619" width="21" height="2" transform="translate(20 50)" fill="#1e44ad"/>
      <rect id="Rectangle_13620" data-name="Rectangle 13620" width="21" height="2" transform="translate(20 47)" fill="#1e44ad"/>
      <rect id="Rectangle_13621" data-name="Rectangle 13621" width="17" height="2" transform="translate(20 41)" fill="#1e44ad"/>
      <rect id="Rectangle_13622" data-name="Rectangle 13622" width="17" height="2" transform="translate(20 37)" fill="#1e44ad"/>
      <rect id="Rectangle_13623" data-name="Rectangle 13623" width="8" height="2" transform="translate(20 33)" fill="#1e44ad"/>
    </g>
  </g>
</svg>
