<svg xmlns="http://www.w3.org/2000/svg" width="56.189" height="56.189" viewBox="0 0 56.189 56.189">
  <g id="_2992644_browser_graph_impression_rate_report_icon" data-name="2992644_browser_graph_impression_rate_report_icon" transform="translate(-0.8 -0.8)">
    <g id="Group_15484" data-name="Group 15484" transform="translate(7.299 18.097)">
      <circle id="Ellipse_796" data-name="Ellipse 796" cx="12.5" cy="12.5" r="12.5" transform="translate(-0.299 -0.097)" fill="#ffc093"/>
    </g>
    <g id="Group_15486" data-name="Group 15486" transform="translate(36.993 11.798)">
      <g id="Group_15485" data-name="Group 15485">
        <path id="Path_43972" data-name="Path 43972" d="M56.3,29.2H41.9a.9.9,0,0,1-.9-.9V13.9a.9.9,0,0,1,.9-.9H56.3a.9.9,0,0,1,.9.9V28.3A.9.9,0,0,1,56.3,29.2Z" transform="translate(-41 -13)" fill="#ffc093"/>
      </g>
    </g>
    <g id="Group_15487" data-name="Group 15487" transform="translate(1 1)">
      <path id="Path_43973" data-name="Path 43973" d="M55.89,1H1.9a.9.9,0,0,0-.9.9V55.89a.9.9,0,0,0,.9.9H55.89a.9.9,0,0,0,.9-.9V1.9A.9.9,0,0,0,55.89,1Zm-.9,1.8V8.2H2.8V2.8ZM2.8,54.99V10H54.99V54.99Z" transform="translate(-1 -1)" fill="#1e44ad" stroke="#1e44ad" stroke-width="0.4"/>
      <circle id="Ellipse_797" data-name="Ellipse 797" cx="0.5" cy="0.5" r="0.5" transform="translate(4 4)" fill="#1e44ad"/>
      <ellipse id="Ellipse_798" data-name="Ellipse 798" cx="1" cy="0.5" rx="1" ry="0.5" transform="translate(7 4)" fill="#1e44ad"/>
      <ellipse id="Ellipse_799" data-name="Ellipse 799" cx="1" cy="0.5" rx="1" ry="0.5" transform="translate(11 4)" fill="#1e44ad"/>
      <circle id="Ellipse_800" data-name="Ellipse 800" cx="1" cy="1" r="1" transform="translate(50 31)" fill="#1e44ad"/>
      <circle id="Ellipse_801" data-name="Ellipse 801" cx="1" cy="1" r="1" transform="translate(50 35)" fill="#1e44ad"/>
      <ellipse id="Ellipse_802" data-name="Ellipse 802" cx="1" cy="0.5" rx="1" ry="0.5" transform="translate(50 39)" fill="#1e44ad"/>
      <circle id="Ellipse_803" data-name="Ellipse 803" cx="1" cy="1" r="1" transform="translate(50 42)" fill="#1e44ad"/>
      <circle id="Ellipse_804" data-name="Ellipse 804" cx="1" cy="1" r="1" transform="translate(50 46)" fill="#1e44ad"/>
      <path id="Path_43974" data-name="Path 43974" d="M20.3,17a15.3,15.3,0,1,0,15.3,15.3A15.314,15.314,0,0,0,20.3,17Zm-.9,1.846v12.8L7.25,35.7A13.428,13.428,0,0,1,19.4,18.846Zm.9,26.949A13.514,13.514,0,0,1,7.811,37.407l12.3-4.1L30.054,41.6A13.45,13.45,0,0,1,20.3,45.795ZM31.2,40.215,21.2,31.875V18.846A13.459,13.459,0,0,1,31.2,40.215Z" transform="translate(-1.401 -2.603)" fill="#1e44ad"/>
      <ellipse id="Ellipse_805" data-name="Ellipse 805" cx="0.5" cy="1" rx="0.5" ry="1" transform="translate(22 25)" fill="#1e44ad"/>
      <circle id="Ellipse_806" data-name="Ellipse 806" cx="1" cy="1" r="1" transform="translate(25 25)" fill="#1e44ad"/>
      <circle id="Ellipse_807" data-name="Ellipse 807" cx="1" cy="1" r="1" transform="translate(29 25)" fill="#1e44ad"/>
      <path id="Path_43975" data-name="Path 43975" d="M53.1,17H45.9a.9.9,0,0,0,0,1.8h7.2a.9.9,0,0,0,0-1.8Z" transform="translate(-5.408 -2.603)" fill="#1e44ad"/>
      <path id="Path_43976" data-name="Path 43976" d="M53.1,25H45.9a.9.9,0,0,0,0,1.8h7.2a.9.9,0,0,0,0-1.8Z" transform="translate(-5.408 -3.404)" fill="#1e44ad"/>
      <path id="Path_43977" data-name="Path 43977" d="M45.9,22.8h1.8a.9.9,0,0,0,0-1.8H45.9a.9.9,0,0,0,0,1.8Z" transform="translate(-5.408 -3.003)" fill="#1e44ad"/>
      <path id="Path_43978" data-name="Path 43978" d="M53.7,21H51.9a.9.9,0,0,0,0,1.8h1.8a.9.9,0,0,0,0-1.8Z" transform="translate(-6.009 -3.003)" fill="#1e44ad"/>
      <path id="Path_43979" data-name="Path 43979" d="M13.7,56H11.9a.9.9,0,1,0,0,1.8h1.8a.9.9,0,1,0,0-1.8Z" transform="translate(-2.002 -6.509)" fill="#1e44ad"/>
      <path id="Path_43980" data-name="Path 43980" d="M19.7,56H17.9a.9.9,0,1,0,0,1.8h1.8a.9.9,0,1,0,0-1.8Z" transform="translate(-2.603 -6.509)" fill="#1e44ad"/>
      <path id="Path_43981" data-name="Path 43981" d="M25.7,56H23.9a.9.9,0,1,0,0,1.8h1.8a.9.9,0,1,0,0-1.8Z" transform="translate(-3.204 -6.509)" fill="#1e44ad"/>
      <path id="Path_43982" data-name="Path 43982" d="M31.7,56H29.9a.9.9,0,1,0,0,1.8h1.8a.9.9,0,0,0,0-1.8Z" transform="translate(-3.805 -6.509)" fill="#1e44ad"/>
      <path id="Path_43983" data-name="Path 43983" d="M52.7,36H41.9a.9.9,0,0,0,0,1.8H52.7a.9.9,0,0,0,0-1.8Z" transform="translate(-5.007 -4.506)" fill="#1e44ad"/>
      <path id="Path_43984" data-name="Path 43984" d="M52.7,40H41.9a.9.9,0,0,0,0,1.8H52.7a.9.9,0,0,0,0-1.8Z" transform="translate(-5.007 -4.907)" fill="#1e44ad"/>
      <path id="Path_43985" data-name="Path 43985" d="M52.7,44H41.9a.9.9,0,0,0,0,1.8H52.7a.9.9,0,0,0,0-1.8Z" transform="translate(-5.007 -5.307)" fill="#1e44ad"/>
      <path id="Path_43986" data-name="Path 43986" d="M52.7,48H41.9a.9.9,0,0,0,0,1.8H52.7a.9.9,0,0,0,0-1.8Z" transform="translate(-5.007 -5.708)" fill="#1e44ad"/>
      <path id="Path_43987" data-name="Path 43987" d="M52.7,52H41.9a.9.9,0,0,0,0,1.8H52.7a.9.9,0,0,0,0-1.8Z" transform="translate(-5.007 -6.109)" fill="#1e44ad"/>
    </g>
  </g>
</svg>
