<svg xmlns="http://www.w3.org/2000/svg" width="58" height="58" viewBox="0 0 58 58">
  <g id="Group_15546" data-name="Group 15546" transform="translate(-666 -2039)">
    <path id="Rectangle_13614" data-name="Rectangle 13614" d="M4,0H4A0,0,0,0,1,4,0V33a0,0,0,0,1,0,0H0a0,0,0,0,1,0,0V4A4,4,0,0,1,4,0Z" transform="translate(670 2057)" fill="#ffc093"/>
    <rect id="Rectangle_13615" data-name="Rectangle 13615" width="6" height="11" transform="translate(716 2040)" fill="#ffc093"/>
    <path id="Forma_1" data-name="Forma 1" d="M5.409,58A5.415,5.415,0,0,1,0,52.591V50.523a1.133,1.133,0,0,1,1.133-1.133H2.492V21.921A5.387,5.387,0,0,1,7.25,16.578V4.758A4.763,4.763,0,0,1,12.008,0H52.336a1.13,1.13,0,0,1,.3.04A4.749,4.749,0,0,1,58,4.758v6.381a1.133,1.133,0,0,1-1.133,1.133H50.75v4.306a5.387,5.387,0,0,1,4.757,5.343v27.47h1.36A1.133,1.133,0,0,1,58,50.523v2.068A5.415,5.415,0,0,1,52.591,58ZM2.266,52.591a3.147,3.147,0,0,0,3.143,3.143H52.591a3.147,3.147,0,0,0,3.143-3.143v-.935H2.266Zm48.484-3.2h2.492V21.921a3.12,3.12,0,0,0-2.492-3.052Zm-11.1-17.846V49.391h8.836V4.758a4.729,4.729,0,0,1,.707-2.492H12.008A2.5,2.5,0,0,0,9.516,4.758V49.391h2.549V40.641a1.133,1.133,0,0,1,.475-.922l12.693-9.061a1.133,1.133,0,0,1,1.459.121l5.259,5.26L44.058,23.93a1.133,1.133,0,0,1,1.934.8V40.923a1.133,1.133,0,1,1-2.266,0V27.466ZM33.3,37.894c0,.037.006.074.006.112V49.391h4.078V33.81Zm-6.338,11.5h4.078V38.331l-4.078-4.078ZM20.617,36.736V49.391H24.7V33.825ZM14.33,41.225v8.166h4.021V38.354Zm-9.573-19.3v27.47H7.25V18.869A3.12,3.12,0,0,0,4.757,21.921ZM50.75,4.758v5.249h4.984V4.758a2.492,2.492,0,1,0-4.984,0ZM26.527,54.828a1.133,1.133,0,1,1,0-2.266h5a1.133,1.133,0,1,1,0,2.266ZM44.058,46.3a1.132,1.132,0,1,1,.8.332A1.141,1.141,0,0,1,44.058,46.3ZM12.087,32.32a1.132,1.132,0,1,1,.8.332A1.144,1.144,0,0,1,12.087,32.32Zm3.882-3.008a1.133,1.133,0,0,1,.261-1.581l8.79-6.295a1.133,1.133,0,0,1,1.461.12L31.421,26.5,42.236,15.683H40.3a1.133,1.133,0,0,1,0-2.266h4.666A1.133,1.133,0,0,1,46.1,14.55v4.666a1.133,1.133,0,1,1-2.266,0V17.285L32.222,28.9a1.133,1.133,0,0,1-1.6,0l-5.062-5.062-8.009,5.735a1.132,1.132,0,0,1-1.58-.261ZM19.1,18.918V18.91a3.6,3.6,0,0,1-2.671-3.4,1.133,1.133,0,1,1,2.266,0,1.433,1.433,0,0,0,1.538,1.291,1.433,1.433,0,0,0,1.538-1.291,1.433,1.433,0,0,0-1.538-1.291,3.691,3.691,0,0,1-3.8-3.557A3.6,3.6,0,0,1,19.1,7.27V7.234a1.133,1.133,0,0,1,2.266,0V7.27a3.6,3.6,0,0,1,2.671,3.4,1.133,1.133,0,0,1-2.266,0,1.433,1.433,0,0,0-1.538-1.291A1.433,1.433,0,0,0,18.7,10.666a1.433,1.433,0,0,0,1.538,1.291,3.691,3.691,0,0,1,3.8,3.557,3.6,3.6,0,0,1-2.671,3.4v.008a1.133,1.133,0,0,1-2.266,0Z" transform="translate(666 2039)" fill="#1e44ad"/>
  </g>
</svg>
